%TF.GenerationSoftware,KiCad,Pcbnew,8.0.0*%
%TF.CreationDate,2024-12-02T23:00:26-05:00*%
%TF.ProjectId,ACS,4143532e-6b69-4636-9164-5f7063625858,rev?*%
%TF.SameCoordinates,Original*%
%TF.FileFunction,Copper,L1,Top*%
%TF.FilePolarity,Positive*%
%FSLAX46Y46*%
G04 Gerber Fmt 4.6, Leading zero omitted, Abs format (unit mm)*
G04 Created by KiCad (PCBNEW 8.0.0) date 2024-12-02 23:00:26*
%MOMM*%
%LPD*%
G01*
G04 APERTURE LIST*
%TA.AperFunction,ComponentPad*%
%ADD10R,1.800000X1.500000*%
%TD*%
%TA.AperFunction,ComponentPad*%
%ADD11R,1.700000X1.700000*%
%TD*%
%TA.AperFunction,ComponentPad*%
%ADD12O,1.700000X1.700000*%
%TD*%
%TA.AperFunction,ComponentPad*%
%ADD13C,1.600000*%
%TD*%
%TA.AperFunction,ComponentPad*%
%ADD14R,1.600000X1.600000*%
%TD*%
%TA.AperFunction,ComponentPad*%
%ADD15R,1.300000X1.300000*%
%TD*%
%TA.AperFunction,ComponentPad*%
%ADD16C,1.300000*%
%TD*%
%TA.AperFunction,ComponentPad*%
%ADD17R,2.500000X2.500000*%
%TD*%
%TA.AperFunction,ComponentPad*%
%ADD18C,2.500000*%
%TD*%
%TA.AperFunction,ComponentPad*%
%ADD19O,2.000000X2.000000*%
%TD*%
%TA.AperFunction,ComponentPad*%
%ADD20R,2.000000X2.000000*%
%TD*%
%TA.AperFunction,ComponentPad*%
%ADD21R,1.905000X2.000000*%
%TD*%
%TA.AperFunction,ComponentPad*%
%ADD22O,1.905000X2.000000*%
%TD*%
%TA.AperFunction,ComponentPad*%
%ADD23C,1.280000*%
%TD*%
%TA.AperFunction,ComponentPad*%
%ADD24R,2.200000X2.200000*%
%TD*%
%TA.AperFunction,ComponentPad*%
%ADD25O,2.200000X2.200000*%
%TD*%
%TA.AperFunction,ViaPad*%
%ADD26C,0.600000*%
%TD*%
%TA.AperFunction,Conductor*%
%ADD27C,0.200000*%
%TD*%
G04 APERTURE END LIST*
D10*
%TO.P,WT901,1,D0*%
%TO.N,unconnected-(WT1-D0-Pad1)*%
X148190000Y-36260000D03*
%TO.P,WT901,2,VCC*%
%TO.N,unconnected-(WT1-VCC-Pad2)*%
X148190000Y-38800000D03*
%TO.P,WT901,3,RX*%
%TO.N,unconnected-(WT1-RX-Pad3)*%
X148190000Y-41340000D03*
%TO.P,WT901,4,TX*%
%TO.N,unconnected-(WT1-TX-Pad4)*%
X148190000Y-43880000D03*
%TO.P,WT901,5,GND*%
%TO.N,unconnected-(WT1-GND-Pad5)*%
X148190000Y-46420000D03*
%TO.P,WT901,6,D1*%
%TO.N,unconnected-(WT1-D1-Pad6)*%
X148190000Y-48960000D03*
%TO.P,WT901,7,D2*%
%TO.N,unconnected-(WT1-D2-Pad7)*%
X161430000Y-36260000D03*
%TO.P,WT901,8,VCC*%
%TO.N,+3V3*%
X161430000Y-38800000D03*
%TO.P,WT901,9,SCL*%
%TO.N,/SCL*%
X161430000Y-41340000D03*
%TO.P,WT901,10,SDA*%
%TO.N,/SDA*%
X161430000Y-43880000D03*
%TO.P,WT901,11,GND*%
%TO.N,GND*%
X161430000Y-46420000D03*
%TO.P,WT901,12,D4*%
%TO.N,unconnected-(WT1-D4-Pad12)*%
X161430000Y-48960000D03*
%TD*%
D11*
%TO.P,BMP388,1,VIN*%
%TO.N,+3V3*%
X111850000Y-62720000D03*
D12*
%TO.P,BMP388,2,3Vo*%
%TO.N,unconnected-(U2-3Vo-Pad2)*%
X111850000Y-65260000D03*
%TO.P,BMP388,3,GND*%
%TO.N,GND*%
X111850000Y-67800000D03*
%TO.P,BMP388,4,INT*%
%TO.N,unconnected-(U2-INT-Pad4)*%
X111850000Y-70340000D03*
%TO.P,BMP388,5,SCK*%
%TO.N,/SCL*%
X111850000Y-72880000D03*
%TO.P,BMP388,6,SDO*%
%TO.N,unconnected-(U2-SDO-Pad6)*%
X111850000Y-75420000D03*
%TO.P,BMP388,7,SDA*%
%TO.N,/SDA*%
X111850000Y-77960000D03*
%TO.P,BMP388,8,CS*%
%TO.N,unconnected-(U2-CS-Pad8)*%
X111850000Y-80500000D03*
%TD*%
D13*
%TO.P,U1,49,VUSB*%
%TO.N,unconnected-(U1-VUSB-Pad49)*%
X141170000Y-38845000D03*
%TO.P,U1,59,GND*%
%TO.N,unconnected-(U1-GND-Pad59)*%
X131520800Y-52764200D03*
%TO.P,U1,58,GND*%
%TO.N,unconnected-(U1-GND-Pad58)*%
X131520800Y-50224200D03*
%TO.P,U1,57,D+*%
%TO.N,unconnected-(U1-D+-Pad57)*%
X131520800Y-47684200D03*
%TO.P,U1,56,D-*%
%TO.N,unconnected-(U1-D--Pad56)*%
X131520800Y-45144200D03*
D14*
%TO.P,U1,55,5V*%
%TO.N,unconnected-(U1-5V-Pad55)*%
X131520800Y-42604200D03*
D13*
%TO.P,U1,48,VIN*%
%TO.N,/5VIN*%
X143710000Y-36305000D03*
%TO.P,U1,47,GND*%
%TO.N,unconnected-(U1-GND-Pad47)*%
X143710000Y-38845000D03*
%TO.P,U1,46,3V3*%
%TO.N,+3V3*%
X143710000Y-41385000D03*
%TO.P,U1,45,23_A9_CRX1_MCLK1*%
%TO.N,unconnected-(U1-23_A9_CRX1_MCLK1-Pad45)*%
X143710000Y-43925000D03*
%TO.P,U1,44,22_A8_CTX1*%
%TO.N,unconnected-(U1-22_A8_CTX1-Pad44)*%
X143710000Y-46465000D03*
%TO.P,U1,43,21_A7_RX5_BCLK1*%
%TO.N,unconnected-(U1-21_A7_RX5_BCLK1-Pad43)*%
X143710000Y-49005000D03*
%TO.P,U1,42,20_A6_TX5_LRCLK1*%
%TO.N,unconnected-(U1-20_A6_TX5_LRCLK1-Pad42)*%
X143710000Y-51545000D03*
%TO.P,U1,41,19_A5_SCL*%
%TO.N,/SCL*%
X143710000Y-54085000D03*
%TO.P,U1,40,18_A4_SDA*%
%TO.N,/SDA*%
X143710000Y-56625000D03*
%TO.P,U1,39,17_A3_TX4_SDA1*%
%TO.N,unconnected-(U1-17_A3_TX4_SDA1-Pad39)*%
X143710000Y-59165000D03*
%TO.P,U1,38,16_A2_RX4_SCL1*%
%TO.N,unconnected-(U1-16_A2_RX4_SCL1-Pad38)*%
X143710000Y-61705000D03*
%TO.P,U1,37,15_A1_RX3_SPDIF_IN*%
%TO.N,unconnected-(U1-15_A1_RX3_SPDIF_IN-Pad37)*%
X143710000Y-64245000D03*
%TO.P,U1,36,14_A0_TX3_SPDIF_OUT*%
%TO.N,unconnected-(U1-14_A0_TX3_SPDIF_OUT-Pad36)*%
X143710000Y-66785000D03*
%TO.P,U1,35,13_SCK_LED*%
%TO.N,unconnected-(U1-13_SCK_LED-Pad35)*%
X143710000Y-69325000D03*
D14*
%TO.P,U1,1,GND*%
%TO.N,GND*%
X128470000Y-36305000D03*
D13*
%TO.P,U1,2,0_RX1_CRX2_CS1*%
%TO.N,unconnected-(U1-0_RX1_CRX2_CS1-Pad2)*%
X128470000Y-38845000D03*
%TO.P,U1,3,1_TX1_CTX2_MISO1*%
%TO.N,unconnected-(U1-1_TX1_CTX2_MISO1-Pad3)*%
X128470000Y-41385000D03*
%TO.P,U1,4,2_OUT2*%
%TO.N,unconnected-(U1-2_OUT2-Pad4)*%
X128470000Y-43925000D03*
%TO.P,U1,5,3_LRCLK2*%
%TO.N,unconnected-(U1-3_LRCLK2-Pad5)*%
X128470000Y-46465000D03*
%TO.P,U1,6,4_BCLK2*%
%TO.N,unconnected-(U1-4_BCLK2-Pad6)*%
X128470000Y-49005000D03*
%TO.P,U1,7,5_IN2*%
%TO.N,/Valve Signal*%
X128470000Y-51545000D03*
%TO.P,U1,8,6_OUT1D*%
%TO.N,unconnected-(U1-6_OUT1D-Pad8)*%
X128470000Y-54085000D03*
%TO.P,U1,9,7_RX2_OUT1A*%
%TO.N,unconnected-(U1-7_RX2_OUT1A-Pad9)*%
X128470000Y-56625000D03*
%TO.P,U1,10,8_TX2_IN1*%
%TO.N,unconnected-(U1-8_TX2_IN1-Pad10)*%
X128470000Y-59165000D03*
%TO.P,U1,11,9_OUT1C*%
%TO.N,unconnected-(U1-9_OUT1C-Pad11)*%
X128470000Y-61705000D03*
%TO.P,U1,12,10_CS_MQSR*%
%TO.N,unconnected-(U1-10_CS_MQSR-Pad12)*%
X128470000Y-64245000D03*
%TO.P,U1,13,11_MOSI_CTX1*%
%TO.N,unconnected-(U1-11_MOSI_CTX1-Pad13)*%
X128470000Y-66785000D03*
%TO.P,U1,34,GND*%
%TO.N,unconnected-(U1-GND-Pad34)*%
X143710000Y-71865000D03*
%TO.P,U1,33,41_A17*%
%TO.N,unconnected-(U1-41_A17-Pad33)*%
X143710000Y-74405000D03*
%TO.P,U1,32,40_A16*%
%TO.N,unconnected-(U1-40_A16-Pad32)*%
X143710000Y-76945000D03*
%TO.P,U1,31,39_MISO1_OUT1A*%
%TO.N,unconnected-(U1-39_MISO1_OUT1A-Pad31)*%
X143710000Y-79485000D03*
%TO.P,U1,30,38_CS1_IN1*%
%TO.N,unconnected-(U1-38_CS1_IN1-Pad30)*%
X143710000Y-82025000D03*
%TO.P,U1,29,37_CS*%
%TO.N,unconnected-(U1-37_CS-Pad29)*%
X143710000Y-84565000D03*
%TO.P,U1,28,36_CS*%
%TO.N,unconnected-(U1-36_CS-Pad28)*%
X143710000Y-87105000D03*
%TO.P,U1,27,35_TX8*%
%TO.N,unconnected-(U1-35_TX8-Pad27)*%
X143710000Y-89645000D03*
%TO.P,U1,26,34_RX8*%
%TO.N,unconnected-(U1-34_RX8-Pad26)*%
X143710000Y-92185000D03*
%TO.P,U1,25,33_MCLK2*%
%TO.N,unconnected-(U1-33_MCLK2-Pad25)*%
X143710000Y-94725000D03*
%TO.P,U1,24,32_OUT1B*%
%TO.N,unconnected-(U1-32_OUT1B-Pad24)*%
X128470000Y-94725000D03*
%TO.P,U1,23,31_CTX3*%
%TO.N,unconnected-(U1-31_CTX3-Pad23)*%
X128470000Y-92185000D03*
%TO.P,U1,22,30_CRX3*%
%TO.N,unconnected-(U1-30_CRX3-Pad22)*%
X128470000Y-89645000D03*
%TO.P,U1,21,29_TX7*%
%TO.N,unconnected-(U1-29_TX7-Pad21)*%
X128470000Y-87105000D03*
%TO.P,U1,14,12_MISO_MQSL*%
%TO.N,unconnected-(U1-12_MISO_MQSL-Pad14)*%
X128470000Y-69325000D03*
%TO.P,U1,15,3V3*%
%TO.N,unconnected-(U1-3V3-Pad15)*%
X128470000Y-71865000D03*
%TO.P,U1,16,24_A10_TX6_SCL2*%
%TO.N,unconnected-(U1-24_A10_TX6_SCL2-Pad16)*%
X128470000Y-74405000D03*
%TO.P,U1,20,28_RX7*%
%TO.N,unconnected-(U1-28_RX7-Pad20)*%
X128470000Y-84565000D03*
%TO.P,U1,19,27_A13_SCK1*%
%TO.N,unconnected-(U1-27_A13_SCK1-Pad19)*%
X128470000Y-82025000D03*
%TO.P,U1,18,26_A12_MOSI1*%
%TO.N,unconnected-(U1-26_A12_MOSI1-Pad18)*%
X128470000Y-79485000D03*
%TO.P,U1,17,25_A11_RX6_SDA2*%
%TO.N,unconnected-(U1-25_A11_RX6_SDA2-Pad17)*%
X128470000Y-76945000D03*
D15*
%TO.P,U1,60,R+*%
%TO.N,unconnected-(U1-R+-Pad60)*%
X141271600Y-49275000D03*
D16*
%TO.P,U1,65,R-*%
%TO.N,unconnected-(U1-R--Pad65)*%
X141271600Y-51275000D03*
%TO.P,U1,61,LED*%
%TO.N,unconnected-(U1-LED-Pad61)*%
X139271600Y-49275000D03*
%TO.P,U1,64,GND*%
%TO.N,unconnected-(U1-GND-Pad64)*%
X139271600Y-51275000D03*
%TO.P,U1,63,T+*%
%TO.N,unconnected-(U1-T+-Pad63)*%
X137271600Y-51275000D03*
%TO.P,U1,62,T-*%
%TO.N,unconnected-(U1-T--Pad62)*%
X137271600Y-49275000D03*
D13*
%TO.P,U1,50,VBAT*%
%TO.N,unconnected-(U1-VBAT-Pad50)*%
X131010000Y-82025000D03*
%TO.P,U1,51,3V3*%
%TO.N,unconnected-(U1-3V3-Pad51)*%
X133550000Y-82025000D03*
%TO.P,U1,52,GND*%
%TO.N,unconnected-(U1-GND-Pad52)*%
X136090000Y-82025000D03*
%TO.P,U1,53,PROGRAM*%
%TO.N,unconnected-(U1-PROGRAM-Pad53)*%
X138630000Y-82025000D03*
%TO.P,U1,54,ON_OFF*%
%TO.N,unconnected-(U1-ON_OFF-Pad54)*%
X141170000Y-82025000D03*
D16*
%TO.P,U1,67,D+*%
%TO.N,unconnected-(U1-D+-Pad67)*%
X134820000Y-37035000D03*
%TO.P,U1,66,D-*%
%TO.N,unconnected-(U1-D--Pad66)*%
X137360000Y-37035000D03*
%TD*%
D17*
%TO.P,SW1,1,A*%
%TO.N,Net-(PS1-VOUT+)*%
X121660000Y-43250000D03*
D18*
%TO.P,SW1,2,B*%
%TO.N,/5VIN*%
X116660000Y-43250000D03*
%TD*%
D19*
%TO.P,R1,2*%
%TO.N,/Valve Signal*%
X147460000Y-53827500D03*
D20*
%TO.P,R1,1*%
%TO.N,Net-(Q1-G)*%
X162460000Y-53827500D03*
%TD*%
D21*
%TO.P,IRLB8721PBF,1,G*%
%TO.N,Net-(Q1-G)*%
X149080000Y-60725000D03*
D22*
%TO.P,IRLB8721PBF,2,D*%
%TO.N,+12V*%
X151620000Y-60725000D03*
%TO.P,IRLB8721PBF,3,S*%
%TO.N,GND*%
X154160000Y-60725000D03*
%TD*%
D23*
%TO.P,PS1,1,VIN+*%
%TO.N,+12V*%
X116620000Y-55823000D03*
%TO.P,PS1,2,GND*%
%TO.N,GND*%
X119160000Y-55823000D03*
%TO.P,PS1,3,VOUT+*%
%TO.N,Net-(PS1-VOUT+)*%
X121700000Y-55823000D03*
%TD*%
D17*
%TO.P,Battery,1,Pin_1*%
%TO.N,GND*%
X115610000Y-87060000D03*
D18*
%TO.P,Battery,2,Pin_2*%
%TO.N,+12V*%
X120610000Y-87060000D03*
%TD*%
D24*
%TO.P,Valve diode,1,K*%
%TO.N,+12V*%
X147370000Y-65590000D03*
D25*
%TO.P,Valve diode,2,A*%
X157530000Y-65590000D03*
%TD*%
D17*
%TO.P,2W-160-15N1,1,PWR*%
%TO.N,+12V*%
X149090000Y-73090000D03*
D18*
%TO.P,2W-160-15N1,2,GND*%
X154090000Y-73090000D03*
%TD*%
D26*
%TO.N,*%
X34000000Y-126500000D03*
%TD*%
D27*
%TO.N,/SCL*%
X124194683Y-54657678D02*
X124194683Y-54264683D01*
X122585224Y-62144776D02*
X122585224Y-56267137D01*
X111850000Y-72880000D02*
X122585224Y-62144776D01*
X122585224Y-56267137D02*
X124194683Y-54657678D01*
X124125000Y-54334365D02*
X128014365Y-50445000D01*
%TO.N,+12V*%
X125808580Y-83148206D02*
X121896786Y-87060000D01*
X128339737Y-80585000D02*
X126030230Y-82894507D01*
X136420635Y-73090000D02*
X128925635Y-80585000D01*
X128925635Y-80585000D02*
X128339737Y-80585000D01*
X126030230Y-82894507D02*
X125808580Y-83148206D01*
X121896786Y-87060000D02*
X120610000Y-87060000D01*
X149090000Y-73090000D02*
X136420635Y-73090000D01*
X111373654Y-71730000D02*
X112086346Y-71730000D01*
X110700000Y-78436346D02*
X110700000Y-72403654D01*
X110700000Y-72403654D02*
X111373654Y-71730000D01*
X112086346Y-71730000D02*
X116620000Y-67196346D01*
X111373654Y-79110000D02*
X110700000Y-78436346D01*
X116620000Y-67196346D02*
X116620000Y-55823000D01*
X112660000Y-79110000D02*
X111373654Y-79110000D01*
X120610000Y-87060000D02*
X112660000Y-79110000D01*
%TO.N,+3V3*%
X138850800Y-46244200D02*
X143710000Y-41385000D01*
X131320000Y-46244200D02*
X138850800Y-46244200D01*
X129999200Y-47565000D02*
X131320000Y-46244200D01*
X127270000Y-46820635D02*
X128014365Y-47565000D01*
X128014365Y-47565000D02*
X129999200Y-47565000D01*
X127270000Y-45760000D02*
X127270000Y-46820635D01*
X120110000Y-41700000D02*
X123210000Y-41700000D01*
X123210000Y-41700000D02*
X127270000Y-45760000D01*
X111850000Y-59170000D02*
X120110000Y-50910000D01*
X111850000Y-62720000D02*
X111850000Y-59170000D01*
X120110000Y-50910000D02*
X120110000Y-41700000D01*
%TO.N,/SCL*%
X131976435Y-51664200D02*
X134397235Y-54085000D01*
X131065165Y-51664200D02*
X131976435Y-51664200D01*
X134397235Y-54085000D02*
X143710000Y-54085000D01*
X129845965Y-50445000D02*
X131065165Y-51664200D01*
X128014365Y-50445000D02*
X129845965Y-50445000D01*
%TO.N,/SDA*%
X132185000Y-68150000D02*
X143710000Y-56625000D01*
X121660000Y-68150000D02*
X132185000Y-68150000D01*
X111850000Y-77960000D02*
X121660000Y-68150000D01*
%TO.N,Net-(Q1-G)*%
X155977500Y-53827500D02*
X149080000Y-60725000D01*
X162460000Y-53827500D02*
X155977500Y-53827500D01*
%TO.N,+12V*%
X147370000Y-71370000D02*
X149090000Y-73090000D01*
X147370000Y-65590000D02*
X147370000Y-71370000D01*
X154090000Y-69030000D02*
X157530000Y-65590000D01*
X154090000Y-73090000D02*
X154090000Y-69030000D01*
X154090000Y-63195000D02*
X151620000Y-60725000D01*
X154090000Y-73090000D02*
X154090000Y-63195000D01*
%TO.N,/Valve Signal*%
X132110000Y-55185000D02*
X128470000Y-51545000D01*
X147460000Y-53827500D02*
X146102500Y-55185000D01*
X146102500Y-55185000D02*
X132110000Y-55185000D01*
%TO.N,/SDA*%
X148685000Y-56625000D02*
X143710000Y-56625000D01*
X161430000Y-43880000D02*
X148685000Y-56625000D01*
%TO.N,/SCL*%
X150769365Y-52000635D02*
X145794365Y-52000635D01*
X145794365Y-52000635D02*
X143710000Y-54085000D01*
X161430000Y-41340000D02*
X150769365Y-52000635D01*
%TO.N,+3V3*%
X159940000Y-40290000D02*
X144805000Y-40290000D01*
X161430000Y-38800000D02*
X159940000Y-40290000D01*
X144805000Y-40290000D02*
X143710000Y-41385000D01*
%TO.N,Net-(PS1-VOUT+)*%
X121700000Y-43290000D02*
X121660000Y-43250000D01*
X121700000Y-55823000D02*
X121700000Y-43290000D01*
%TO.N,/5VIN*%
X124770000Y-35140000D02*
X142545000Y-35140000D01*
X142545000Y-35140000D02*
X143710000Y-36305000D01*
X116660000Y-43250000D02*
X124770000Y-35140000D01*
%TD*%
M02*
