M48
; DRILL file {KiCad 8.0.0} date 2024-12-02T23:00:36-0500
; FORMAT={-:-/ absolute / inch / decimal}
; #@! TF.CreationDate,2024-12-02T23:00:36-05:00
; #@! TF.GenerationSoftware,Kicad,Pcbnew,8.0.0
; #@! TF.FileFunction,Plated,1,2,PTH
FMAT,2
INCH
; #@! TA.AperFunction,Plated,PTH,ViaDrill
T1C0.0118
; #@! TA.AperFunction,Plated,PTH,ComponentDrill
T2C0.0276
; #@! TA.AperFunction,Plated,PTH,ComponentDrill
T3C0.0307
; #@! TA.AperFunction,Plated,PTH,ComponentDrill
T4C0.0315
; #@! TA.AperFunction,Plated,PTH,ComponentDrill
T5C0.0394
; #@! TA.AperFunction,Plated,PTH,ComponentDrill
T6C0.0433
; #@! TA.AperFunction,Plated,PTH,ComponentDrill
T7C0.0512
%
G90
G05
T1
X1.3386Y-4.9803
T2
X5.8343Y-1.4276
X5.8343Y-1.5276
X5.8343Y-1.6276
X5.8343Y-1.7276
X5.8343Y-1.8276
X5.8343Y-1.9276
X6.3555Y-1.4276
X6.3555Y-1.5276
X6.3555Y-1.6276
X6.3555Y-1.7276
X6.3555Y-1.8276
X6.3555Y-1.9276
T3
X4.5913Y-2.1978
X4.6913Y-2.1978
X4.7913Y-2.1978
T4
X5.3079Y-1.4581
X5.4044Y-1.94
X5.4044Y-2.0187
X5.4079Y-1.4581
X5.4831Y-1.94
X5.4831Y-2.0187
X5.5619Y-1.94
X5.5619Y-2.0187
T5
X4.4035Y-2.4693
X4.4035Y-2.5693
X4.4035Y-2.6693
X4.4035Y-2.7693
X4.4035Y-2.8693
X4.4035Y-2.9693
X4.4035Y-3.0693
X4.4035Y-3.1693
X5.8055Y-2.1192
X6.3961Y-2.1192
T6
X5.0579Y-1.4293
X5.0579Y-1.5293
X5.0579Y-1.6293
X5.0579Y-1.7293
X5.0579Y-1.8293
X5.0579Y-1.9293
X5.0579Y-2.0293
X5.0579Y-2.1293
X5.0579Y-2.2293
X5.0579Y-2.3293
X5.0579Y-2.4293
X5.0579Y-2.5293
X5.0579Y-2.6293
X5.0579Y-2.7293
X5.0579Y-2.8293
X5.0579Y-2.9293
X5.0579Y-3.0293
X5.0579Y-3.1293
X5.0579Y-3.2293
X5.0579Y-3.3293
X5.0579Y-3.4293
X5.0579Y-3.5293
X5.0579Y-3.6293
X5.0579Y-3.7293
X5.1579Y-3.2293
X5.178Y-1.6773
X5.178Y-1.7773
X5.178Y-1.8773
X5.178Y-1.9773
X5.178Y-2.0773
X5.2579Y-3.2293
X5.3579Y-3.2293
X5.4579Y-3.2293
X5.5579Y-1.5293
X5.5579Y-3.2293
X5.6579Y-1.4293
X5.6579Y-1.5293
X5.6579Y-1.6293
X5.6579Y-1.7293
X5.6579Y-1.8293
X5.6579Y-1.9293
X5.6579Y-2.0293
X5.6579Y-2.1293
X5.6579Y-2.2293
X5.6579Y-2.3293
X5.6579Y-2.4293
X5.6579Y-2.5293
X5.6579Y-2.6293
X5.6579Y-2.7293
X5.6579Y-2.8293
X5.6579Y-2.9293
X5.6579Y-3.0293
X5.6579Y-3.1293
X5.6579Y-3.2293
X5.6579Y-3.3293
X5.6579Y-3.4293
X5.6579Y-3.5293
X5.6579Y-3.6293
X5.6579Y-3.7293
X5.802Y-2.5823
X5.8693Y-2.3907
X5.9693Y-2.3907
X6.0693Y-2.3907
X6.202Y-2.5823
T7
X4.5516Y-3.4276
X4.5929Y-1.7028
X4.7484Y-3.4276
X4.7898Y-1.7028
X5.8697Y-2.8776
X6.0665Y-2.8776
M30
