%TF.GenerationSoftware,KiCad,Pcbnew,8.0.0*%
%TF.CreationDate,2024-12-02T23:00:26-05:00*%
%TF.ProjectId,ACS,4143532e-6b69-4636-9164-5f7063625858,rev?*%
%TF.SameCoordinates,Original*%
%TF.FileFunction,Legend,Top*%
%TF.FilePolarity,Positive*%
%FSLAX46Y46*%
G04 Gerber Fmt 4.6, Leading zero omitted, Abs format (unit mm)*
G04 Created by KiCad (PCBNEW 8.0.0) date 2024-12-02 23:00:26*
%MOMM*%
%LPD*%
G01*
G04 APERTURE LIST*
%ADD10C,0.150000*%
%ADD11C,0.100000*%
%ADD12C,0.254000*%
%ADD13C,0.120000*%
G04 APERTURE END LIST*
D10*
X111864580Y-92011792D02*
X111912200Y-92059411D01*
X111912200Y-92059411D02*
X111959819Y-92202268D01*
X111959819Y-92202268D02*
X111959819Y-92297506D01*
X111959819Y-92297506D02*
X111912200Y-92440363D01*
X111912200Y-92440363D02*
X111816961Y-92535601D01*
X111816961Y-92535601D02*
X111721723Y-92583220D01*
X111721723Y-92583220D02*
X111531247Y-92630839D01*
X111531247Y-92630839D02*
X111388390Y-92630839D01*
X111388390Y-92630839D02*
X111197914Y-92583220D01*
X111197914Y-92583220D02*
X111102676Y-92535601D01*
X111102676Y-92535601D02*
X111007438Y-92440363D01*
X111007438Y-92440363D02*
X110959819Y-92297506D01*
X110959819Y-92297506D02*
X110959819Y-92202268D01*
X110959819Y-92202268D02*
X111007438Y-92059411D01*
X111007438Y-92059411D02*
X111055057Y-92011792D01*
X111959819Y-91440363D02*
X111912200Y-91535601D01*
X111912200Y-91535601D02*
X111864580Y-91583220D01*
X111864580Y-91583220D02*
X111769342Y-91630839D01*
X111769342Y-91630839D02*
X111483628Y-91630839D01*
X111483628Y-91630839D02*
X111388390Y-91583220D01*
X111388390Y-91583220D02*
X111340771Y-91535601D01*
X111340771Y-91535601D02*
X111293152Y-91440363D01*
X111293152Y-91440363D02*
X111293152Y-91297506D01*
X111293152Y-91297506D02*
X111340771Y-91202268D01*
X111340771Y-91202268D02*
X111388390Y-91154649D01*
X111388390Y-91154649D02*
X111483628Y-91107030D01*
X111483628Y-91107030D02*
X111769342Y-91107030D01*
X111769342Y-91107030D02*
X111864580Y-91154649D01*
X111864580Y-91154649D02*
X111912200Y-91202268D01*
X111912200Y-91202268D02*
X111959819Y-91297506D01*
X111959819Y-91297506D02*
X111959819Y-91440363D01*
X111293152Y-90678458D02*
X111959819Y-90678458D01*
X111388390Y-90678458D02*
X111340771Y-90630839D01*
X111340771Y-90630839D02*
X111293152Y-90535601D01*
X111293152Y-90535601D02*
X111293152Y-90392744D01*
X111293152Y-90392744D02*
X111340771Y-90297506D01*
X111340771Y-90297506D02*
X111436009Y-90249887D01*
X111436009Y-90249887D02*
X111959819Y-90249887D01*
X111293152Y-89773696D02*
X111959819Y-89773696D01*
X111388390Y-89773696D02*
X111340771Y-89726077D01*
X111340771Y-89726077D02*
X111293152Y-89630839D01*
X111293152Y-89630839D02*
X111293152Y-89487982D01*
X111293152Y-89487982D02*
X111340771Y-89392744D01*
X111340771Y-89392744D02*
X111436009Y-89345125D01*
X111436009Y-89345125D02*
X111959819Y-89345125D01*
X111912200Y-88487982D02*
X111959819Y-88583220D01*
X111959819Y-88583220D02*
X111959819Y-88773696D01*
X111959819Y-88773696D02*
X111912200Y-88868934D01*
X111912200Y-88868934D02*
X111816961Y-88916553D01*
X111816961Y-88916553D02*
X111436009Y-88916553D01*
X111436009Y-88916553D02*
X111340771Y-88868934D01*
X111340771Y-88868934D02*
X111293152Y-88773696D01*
X111293152Y-88773696D02*
X111293152Y-88583220D01*
X111293152Y-88583220D02*
X111340771Y-88487982D01*
X111340771Y-88487982D02*
X111436009Y-88440363D01*
X111436009Y-88440363D02*
X111531247Y-88440363D01*
X111531247Y-88440363D02*
X111626485Y-88916553D01*
X111912200Y-87583220D02*
X111959819Y-87678458D01*
X111959819Y-87678458D02*
X111959819Y-87868934D01*
X111959819Y-87868934D02*
X111912200Y-87964172D01*
X111912200Y-87964172D02*
X111864580Y-88011791D01*
X111864580Y-88011791D02*
X111769342Y-88059410D01*
X111769342Y-88059410D02*
X111483628Y-88059410D01*
X111483628Y-88059410D02*
X111388390Y-88011791D01*
X111388390Y-88011791D02*
X111340771Y-87964172D01*
X111340771Y-87964172D02*
X111293152Y-87868934D01*
X111293152Y-87868934D02*
X111293152Y-87678458D01*
X111293152Y-87678458D02*
X111340771Y-87583220D01*
X111293152Y-87297505D02*
X111293152Y-86916553D01*
X110959819Y-87154648D02*
X111816961Y-87154648D01*
X111816961Y-87154648D02*
X111912200Y-87107029D01*
X111912200Y-87107029D02*
X111959819Y-87011791D01*
X111959819Y-87011791D02*
X111959819Y-86916553D01*
X111959819Y-86440362D02*
X111912200Y-86535600D01*
X111912200Y-86535600D02*
X111864580Y-86583219D01*
X111864580Y-86583219D02*
X111769342Y-86630838D01*
X111769342Y-86630838D02*
X111483628Y-86630838D01*
X111483628Y-86630838D02*
X111388390Y-86583219D01*
X111388390Y-86583219D02*
X111340771Y-86535600D01*
X111340771Y-86535600D02*
X111293152Y-86440362D01*
X111293152Y-86440362D02*
X111293152Y-86297505D01*
X111293152Y-86297505D02*
X111340771Y-86202267D01*
X111340771Y-86202267D02*
X111388390Y-86154648D01*
X111388390Y-86154648D02*
X111483628Y-86107029D01*
X111483628Y-86107029D02*
X111769342Y-86107029D01*
X111769342Y-86107029D02*
X111864580Y-86154648D01*
X111864580Y-86154648D02*
X111912200Y-86202267D01*
X111912200Y-86202267D02*
X111959819Y-86297505D01*
X111959819Y-86297505D02*
X111959819Y-86440362D01*
X111959819Y-85678457D02*
X111293152Y-85678457D01*
X111483628Y-85678457D02*
X111388390Y-85630838D01*
X111388390Y-85630838D02*
X111340771Y-85583219D01*
X111340771Y-85583219D02*
X111293152Y-85487981D01*
X111293152Y-85487981D02*
X111293152Y-85392743D01*
D11*
X145841027Y-81542419D02*
X146174360Y-82542419D01*
X146174360Y-82542419D02*
X146507693Y-81542419D01*
X147269598Y-82542419D02*
X147269598Y-82018609D01*
X147269598Y-82018609D02*
X147221979Y-81923371D01*
X147221979Y-81923371D02*
X147126741Y-81875752D01*
X147126741Y-81875752D02*
X146936265Y-81875752D01*
X146936265Y-81875752D02*
X146841027Y-81923371D01*
X147269598Y-82494800D02*
X147174360Y-82542419D01*
X147174360Y-82542419D02*
X146936265Y-82542419D01*
X146936265Y-82542419D02*
X146841027Y-82494800D01*
X146841027Y-82494800D02*
X146793408Y-82399561D01*
X146793408Y-82399561D02*
X146793408Y-82304323D01*
X146793408Y-82304323D02*
X146841027Y-82209085D01*
X146841027Y-82209085D02*
X146936265Y-82161466D01*
X146936265Y-82161466D02*
X147174360Y-82161466D01*
X147174360Y-82161466D02*
X147269598Y-82113847D01*
X147888646Y-82542419D02*
X147793408Y-82494800D01*
X147793408Y-82494800D02*
X147745789Y-82399561D01*
X147745789Y-82399561D02*
X147745789Y-81542419D01*
X148174361Y-81875752D02*
X148412456Y-82542419D01*
X148412456Y-82542419D02*
X148650551Y-81875752D01*
X149412456Y-82494800D02*
X149317218Y-82542419D01*
X149317218Y-82542419D02*
X149126742Y-82542419D01*
X149126742Y-82542419D02*
X149031504Y-82494800D01*
X149031504Y-82494800D02*
X148983885Y-82399561D01*
X148983885Y-82399561D02*
X148983885Y-82018609D01*
X148983885Y-82018609D02*
X149031504Y-81923371D01*
X149031504Y-81923371D02*
X149126742Y-81875752D01*
X149126742Y-81875752D02*
X149317218Y-81875752D01*
X149317218Y-81875752D02*
X149412456Y-81923371D01*
X149412456Y-81923371D02*
X149460075Y-82018609D01*
X149460075Y-82018609D02*
X149460075Y-82113847D01*
X149460075Y-82113847D02*
X148983885Y-82209085D01*
X151221980Y-82447180D02*
X151174361Y-82494800D01*
X151174361Y-82494800D02*
X151031504Y-82542419D01*
X151031504Y-82542419D02*
X150936266Y-82542419D01*
X150936266Y-82542419D02*
X150793409Y-82494800D01*
X150793409Y-82494800D02*
X150698171Y-82399561D01*
X150698171Y-82399561D02*
X150650552Y-82304323D01*
X150650552Y-82304323D02*
X150602933Y-82113847D01*
X150602933Y-82113847D02*
X150602933Y-81970990D01*
X150602933Y-81970990D02*
X150650552Y-81780514D01*
X150650552Y-81780514D02*
X150698171Y-81685276D01*
X150698171Y-81685276D02*
X150793409Y-81590038D01*
X150793409Y-81590038D02*
X150936266Y-81542419D01*
X150936266Y-81542419D02*
X151031504Y-81542419D01*
X151031504Y-81542419D02*
X151174361Y-81590038D01*
X151174361Y-81590038D02*
X151221980Y-81637657D01*
X151793409Y-82542419D02*
X151698171Y-82494800D01*
X151698171Y-82494800D02*
X151650552Y-82447180D01*
X151650552Y-82447180D02*
X151602933Y-82351942D01*
X151602933Y-82351942D02*
X151602933Y-82066228D01*
X151602933Y-82066228D02*
X151650552Y-81970990D01*
X151650552Y-81970990D02*
X151698171Y-81923371D01*
X151698171Y-81923371D02*
X151793409Y-81875752D01*
X151793409Y-81875752D02*
X151936266Y-81875752D01*
X151936266Y-81875752D02*
X152031504Y-81923371D01*
X152031504Y-81923371D02*
X152079123Y-81970990D01*
X152079123Y-81970990D02*
X152126742Y-82066228D01*
X152126742Y-82066228D02*
X152126742Y-82351942D01*
X152126742Y-82351942D02*
X152079123Y-82447180D01*
X152079123Y-82447180D02*
X152031504Y-82494800D01*
X152031504Y-82494800D02*
X151936266Y-82542419D01*
X151936266Y-82542419D02*
X151793409Y-82542419D01*
X152555314Y-81875752D02*
X152555314Y-82542419D01*
X152555314Y-81970990D02*
X152602933Y-81923371D01*
X152602933Y-81923371D02*
X152698171Y-81875752D01*
X152698171Y-81875752D02*
X152841028Y-81875752D01*
X152841028Y-81875752D02*
X152936266Y-81923371D01*
X152936266Y-81923371D02*
X152983885Y-82018609D01*
X152983885Y-82018609D02*
X152983885Y-82542419D01*
X153460076Y-81875752D02*
X153460076Y-82542419D01*
X153460076Y-81970990D02*
X153507695Y-81923371D01*
X153507695Y-81923371D02*
X153602933Y-81875752D01*
X153602933Y-81875752D02*
X153745790Y-81875752D01*
X153745790Y-81875752D02*
X153841028Y-81923371D01*
X153841028Y-81923371D02*
X153888647Y-82018609D01*
X153888647Y-82018609D02*
X153888647Y-82542419D01*
X154745790Y-82494800D02*
X154650552Y-82542419D01*
X154650552Y-82542419D02*
X154460076Y-82542419D01*
X154460076Y-82542419D02*
X154364838Y-82494800D01*
X154364838Y-82494800D02*
X154317219Y-82399561D01*
X154317219Y-82399561D02*
X154317219Y-82018609D01*
X154317219Y-82018609D02*
X154364838Y-81923371D01*
X154364838Y-81923371D02*
X154460076Y-81875752D01*
X154460076Y-81875752D02*
X154650552Y-81875752D01*
X154650552Y-81875752D02*
X154745790Y-81923371D01*
X154745790Y-81923371D02*
X154793409Y-82018609D01*
X154793409Y-82018609D02*
X154793409Y-82113847D01*
X154793409Y-82113847D02*
X154317219Y-82209085D01*
X155650552Y-82494800D02*
X155555314Y-82542419D01*
X155555314Y-82542419D02*
X155364838Y-82542419D01*
X155364838Y-82542419D02*
X155269600Y-82494800D01*
X155269600Y-82494800D02*
X155221981Y-82447180D01*
X155221981Y-82447180D02*
X155174362Y-82351942D01*
X155174362Y-82351942D02*
X155174362Y-82066228D01*
X155174362Y-82066228D02*
X155221981Y-81970990D01*
X155221981Y-81970990D02*
X155269600Y-81923371D01*
X155269600Y-81923371D02*
X155364838Y-81875752D01*
X155364838Y-81875752D02*
X155555314Y-81875752D01*
X155555314Y-81875752D02*
X155650552Y-81923371D01*
X155936267Y-81875752D02*
X156317219Y-81875752D01*
X156079124Y-81542419D02*
X156079124Y-82399561D01*
X156079124Y-82399561D02*
X156126743Y-82494800D01*
X156126743Y-82494800D02*
X156221981Y-82542419D01*
X156221981Y-82542419D02*
X156317219Y-82542419D01*
X156793410Y-82542419D02*
X156698172Y-82494800D01*
X156698172Y-82494800D02*
X156650553Y-82447180D01*
X156650553Y-82447180D02*
X156602934Y-82351942D01*
X156602934Y-82351942D02*
X156602934Y-82066228D01*
X156602934Y-82066228D02*
X156650553Y-81970990D01*
X156650553Y-81970990D02*
X156698172Y-81923371D01*
X156698172Y-81923371D02*
X156793410Y-81875752D01*
X156793410Y-81875752D02*
X156936267Y-81875752D01*
X156936267Y-81875752D02*
X157031505Y-81923371D01*
X157031505Y-81923371D02*
X157079124Y-81970990D01*
X157079124Y-81970990D02*
X157126743Y-82066228D01*
X157126743Y-82066228D02*
X157126743Y-82351942D01*
X157126743Y-82351942D02*
X157079124Y-82447180D01*
X157079124Y-82447180D02*
X157031505Y-82494800D01*
X157031505Y-82494800D02*
X156936267Y-82542419D01*
X156936267Y-82542419D02*
X156793410Y-82542419D01*
X157555315Y-82542419D02*
X157555315Y-81875752D01*
X157555315Y-82066228D02*
X157602934Y-81970990D01*
X157602934Y-81970990D02*
X157650553Y-81923371D01*
X157650553Y-81923371D02*
X157745791Y-81875752D01*
X157745791Y-81875752D02*
X157841029Y-81875752D01*
X148837693Y-68352419D02*
X148266265Y-68352419D01*
X148551979Y-68352419D02*
X148551979Y-67352419D01*
X148551979Y-67352419D02*
X148456741Y-67495276D01*
X148456741Y-67495276D02*
X148361503Y-67590514D01*
X148361503Y-67590514D02*
X148266265Y-67638133D01*
X149266265Y-68352419D02*
X149266265Y-67352419D01*
X149266265Y-67352419D02*
X149837693Y-68352419D01*
X149837693Y-68352419D02*
X149837693Y-67352419D01*
X150742455Y-67685752D02*
X150742455Y-68352419D01*
X150504360Y-67304800D02*
X150266265Y-68019085D01*
X150266265Y-68019085D02*
X150885312Y-68019085D01*
X151456741Y-67352419D02*
X151551979Y-67352419D01*
X151551979Y-67352419D02*
X151647217Y-67400038D01*
X151647217Y-67400038D02*
X151694836Y-67447657D01*
X151694836Y-67447657D02*
X151742455Y-67542895D01*
X151742455Y-67542895D02*
X151790074Y-67733371D01*
X151790074Y-67733371D02*
X151790074Y-67971466D01*
X151790074Y-67971466D02*
X151742455Y-68161942D01*
X151742455Y-68161942D02*
X151694836Y-68257180D01*
X151694836Y-68257180D02*
X151647217Y-68304800D01*
X151647217Y-68304800D02*
X151551979Y-68352419D01*
X151551979Y-68352419D02*
X151456741Y-68352419D01*
X151456741Y-68352419D02*
X151361503Y-68304800D01*
X151361503Y-68304800D02*
X151313884Y-68257180D01*
X151313884Y-68257180D02*
X151266265Y-68161942D01*
X151266265Y-68161942D02*
X151218646Y-67971466D01*
X151218646Y-67971466D02*
X151218646Y-67733371D01*
X151218646Y-67733371D02*
X151266265Y-67542895D01*
X151266265Y-67542895D02*
X151313884Y-67447657D01*
X151313884Y-67447657D02*
X151361503Y-67400038D01*
X151361503Y-67400038D02*
X151456741Y-67352419D01*
X152409122Y-67352419D02*
X152504360Y-67352419D01*
X152504360Y-67352419D02*
X152599598Y-67400038D01*
X152599598Y-67400038D02*
X152647217Y-67447657D01*
X152647217Y-67447657D02*
X152694836Y-67542895D01*
X152694836Y-67542895D02*
X152742455Y-67733371D01*
X152742455Y-67733371D02*
X152742455Y-67971466D01*
X152742455Y-67971466D02*
X152694836Y-68161942D01*
X152694836Y-68161942D02*
X152647217Y-68257180D01*
X152647217Y-68257180D02*
X152599598Y-68304800D01*
X152599598Y-68304800D02*
X152504360Y-68352419D01*
X152504360Y-68352419D02*
X152409122Y-68352419D01*
X152409122Y-68352419D02*
X152313884Y-68304800D01*
X152313884Y-68304800D02*
X152266265Y-68257180D01*
X152266265Y-68257180D02*
X152218646Y-68161942D01*
X152218646Y-68161942D02*
X152171027Y-67971466D01*
X152171027Y-67971466D02*
X152171027Y-67733371D01*
X152171027Y-67733371D02*
X152218646Y-67542895D01*
X152218646Y-67542895D02*
X152266265Y-67447657D01*
X152266265Y-67447657D02*
X152313884Y-67400038D01*
X152313884Y-67400038D02*
X152409122Y-67352419D01*
X153694836Y-68352419D02*
X153123408Y-68352419D01*
X153409122Y-68352419D02*
X153409122Y-67352419D01*
X153409122Y-67352419D02*
X153313884Y-67495276D01*
X153313884Y-67495276D02*
X153218646Y-67590514D01*
X153218646Y-67590514D02*
X153123408Y-67638133D01*
X152646265Y-52596657D02*
X152693884Y-52549038D01*
X152693884Y-52549038D02*
X152789122Y-52501419D01*
X152789122Y-52501419D02*
X153027217Y-52501419D01*
X153027217Y-52501419D02*
X153122455Y-52549038D01*
X153122455Y-52549038D02*
X153170074Y-52596657D01*
X153170074Y-52596657D02*
X153217693Y-52691895D01*
X153217693Y-52691895D02*
X153217693Y-52787133D01*
X153217693Y-52787133D02*
X153170074Y-52929990D01*
X153170074Y-52929990D02*
X152598646Y-53501419D01*
X152598646Y-53501419D02*
X153217693Y-53501419D01*
X153551027Y-52501419D02*
X154217693Y-52501419D01*
X154217693Y-52501419D02*
X153789122Y-53501419D01*
X154789122Y-52501419D02*
X154884360Y-52501419D01*
X154884360Y-52501419D02*
X154979598Y-52549038D01*
X154979598Y-52549038D02*
X155027217Y-52596657D01*
X155027217Y-52596657D02*
X155074836Y-52691895D01*
X155074836Y-52691895D02*
X155122455Y-52882371D01*
X155122455Y-52882371D02*
X155122455Y-53120466D01*
X155122455Y-53120466D02*
X155074836Y-53310942D01*
X155074836Y-53310942D02*
X155027217Y-53406180D01*
X155027217Y-53406180D02*
X154979598Y-53453800D01*
X154979598Y-53453800D02*
X154884360Y-53501419D01*
X154884360Y-53501419D02*
X154789122Y-53501419D01*
X154789122Y-53501419D02*
X154693884Y-53453800D01*
X154693884Y-53453800D02*
X154646265Y-53406180D01*
X154646265Y-53406180D02*
X154598646Y-53310942D01*
X154598646Y-53310942D02*
X154551027Y-53120466D01*
X154551027Y-53120466D02*
X154551027Y-52882371D01*
X154551027Y-52882371D02*
X154598646Y-52691895D01*
X154598646Y-52691895D02*
X154646265Y-52596657D01*
X154646265Y-52596657D02*
X154693884Y-52549038D01*
X154693884Y-52549038D02*
X154789122Y-52501419D01*
X155503408Y-53501419D02*
X155741503Y-53501419D01*
X155741503Y-53501419D02*
X155741503Y-53310942D01*
X155741503Y-53310942D02*
X155646265Y-53263323D01*
X155646265Y-53263323D02*
X155551027Y-53168085D01*
X155551027Y-53168085D02*
X155503408Y-53025228D01*
X155503408Y-53025228D02*
X155503408Y-52787133D01*
X155503408Y-52787133D02*
X155551027Y-52644276D01*
X155551027Y-52644276D02*
X155646265Y-52549038D01*
X155646265Y-52549038D02*
X155789122Y-52501419D01*
X155789122Y-52501419D02*
X155979598Y-52501419D01*
X155979598Y-52501419D02*
X156122455Y-52549038D01*
X156122455Y-52549038D02*
X156217693Y-52644276D01*
X156217693Y-52644276D02*
X156265312Y-52787133D01*
X156265312Y-52787133D02*
X156265312Y-53025228D01*
X156265312Y-53025228D02*
X156217693Y-53168085D01*
X156217693Y-53168085D02*
X156122455Y-53263323D01*
X156122455Y-53263323D02*
X156027217Y-53310942D01*
X156027217Y-53310942D02*
X156027217Y-53501419D01*
X156027217Y-53501419D02*
X156265312Y-53501419D01*
X164043884Y-44372419D02*
X164043884Y-43372419D01*
X164520074Y-44372419D02*
X164520074Y-43372419D01*
X164520074Y-43372419D02*
X164853407Y-44086704D01*
X164853407Y-44086704D02*
X165186740Y-43372419D01*
X165186740Y-43372419D02*
X165186740Y-44372419D01*
X165662931Y-43372419D02*
X165662931Y-44181942D01*
X165662931Y-44181942D02*
X165710550Y-44277180D01*
X165710550Y-44277180D02*
X165758169Y-44324800D01*
X165758169Y-44324800D02*
X165853407Y-44372419D01*
X165853407Y-44372419D02*
X166043883Y-44372419D01*
X166043883Y-44372419D02*
X166139121Y-44324800D01*
X166139121Y-44324800D02*
X166186740Y-44277180D01*
X166186740Y-44277180D02*
X166234359Y-44181942D01*
X166234359Y-44181942D02*
X166234359Y-43372419D01*
X162921905Y-41607419D02*
X163160000Y-42607419D01*
X163160000Y-42607419D02*
X163350476Y-41893133D01*
X163350476Y-41893133D02*
X163540952Y-42607419D01*
X163540952Y-42607419D02*
X163779048Y-41607419D01*
X164017143Y-41607419D02*
X164588571Y-41607419D01*
X164302857Y-42607419D02*
X164302857Y-41607419D01*
X164969524Y-42607419D02*
X165160000Y-42607419D01*
X165160000Y-42607419D02*
X165255238Y-42559800D01*
X165255238Y-42559800D02*
X165302857Y-42512180D01*
X165302857Y-42512180D02*
X165398095Y-42369323D01*
X165398095Y-42369323D02*
X165445714Y-42178847D01*
X165445714Y-42178847D02*
X165445714Y-41797895D01*
X165445714Y-41797895D02*
X165398095Y-41702657D01*
X165398095Y-41702657D02*
X165350476Y-41655038D01*
X165350476Y-41655038D02*
X165255238Y-41607419D01*
X165255238Y-41607419D02*
X165064762Y-41607419D01*
X165064762Y-41607419D02*
X164969524Y-41655038D01*
X164969524Y-41655038D02*
X164921905Y-41702657D01*
X164921905Y-41702657D02*
X164874286Y-41797895D01*
X164874286Y-41797895D02*
X164874286Y-42035990D01*
X164874286Y-42035990D02*
X164921905Y-42131228D01*
X164921905Y-42131228D02*
X164969524Y-42178847D01*
X164969524Y-42178847D02*
X165064762Y-42226466D01*
X165064762Y-42226466D02*
X165255238Y-42226466D01*
X165255238Y-42226466D02*
X165350476Y-42178847D01*
X165350476Y-42178847D02*
X165398095Y-42131228D01*
X165398095Y-42131228D02*
X165445714Y-42035990D01*
X166064762Y-41607419D02*
X166160000Y-41607419D01*
X166160000Y-41607419D02*
X166255238Y-41655038D01*
X166255238Y-41655038D02*
X166302857Y-41702657D01*
X166302857Y-41702657D02*
X166350476Y-41797895D01*
X166350476Y-41797895D02*
X166398095Y-41988371D01*
X166398095Y-41988371D02*
X166398095Y-42226466D01*
X166398095Y-42226466D02*
X166350476Y-42416942D01*
X166350476Y-42416942D02*
X166302857Y-42512180D01*
X166302857Y-42512180D02*
X166255238Y-42559800D01*
X166255238Y-42559800D02*
X166160000Y-42607419D01*
X166160000Y-42607419D02*
X166064762Y-42607419D01*
X166064762Y-42607419D02*
X165969524Y-42559800D01*
X165969524Y-42559800D02*
X165921905Y-42512180D01*
X165921905Y-42512180D02*
X165874286Y-42416942D01*
X165874286Y-42416942D02*
X165826667Y-42226466D01*
X165826667Y-42226466D02*
X165826667Y-41988371D01*
X165826667Y-41988371D02*
X165874286Y-41797895D01*
X165874286Y-41797895D02*
X165921905Y-41702657D01*
X165921905Y-41702657D02*
X165969524Y-41655038D01*
X165969524Y-41655038D02*
X166064762Y-41607419D01*
X167350476Y-42607419D02*
X166779048Y-42607419D01*
X167064762Y-42607419D02*
X167064762Y-41607419D01*
X167064762Y-41607419D02*
X166969524Y-41750276D01*
X166969524Y-41750276D02*
X166874286Y-41845514D01*
X166874286Y-41845514D02*
X166779048Y-41893133D01*
X157446265Y-41814800D02*
X157589122Y-41862419D01*
X157589122Y-41862419D02*
X157827217Y-41862419D01*
X157827217Y-41862419D02*
X157922455Y-41814800D01*
X157922455Y-41814800D02*
X157970074Y-41767180D01*
X157970074Y-41767180D02*
X158017693Y-41671942D01*
X158017693Y-41671942D02*
X158017693Y-41576704D01*
X158017693Y-41576704D02*
X157970074Y-41481466D01*
X157970074Y-41481466D02*
X157922455Y-41433847D01*
X157922455Y-41433847D02*
X157827217Y-41386228D01*
X157827217Y-41386228D02*
X157636741Y-41338609D01*
X157636741Y-41338609D02*
X157541503Y-41290990D01*
X157541503Y-41290990D02*
X157493884Y-41243371D01*
X157493884Y-41243371D02*
X157446265Y-41148133D01*
X157446265Y-41148133D02*
X157446265Y-41052895D01*
X157446265Y-41052895D02*
X157493884Y-40957657D01*
X157493884Y-40957657D02*
X157541503Y-40910038D01*
X157541503Y-40910038D02*
X157636741Y-40862419D01*
X157636741Y-40862419D02*
X157874836Y-40862419D01*
X157874836Y-40862419D02*
X158017693Y-40910038D01*
X159017693Y-41767180D02*
X158970074Y-41814800D01*
X158970074Y-41814800D02*
X158827217Y-41862419D01*
X158827217Y-41862419D02*
X158731979Y-41862419D01*
X158731979Y-41862419D02*
X158589122Y-41814800D01*
X158589122Y-41814800D02*
X158493884Y-41719561D01*
X158493884Y-41719561D02*
X158446265Y-41624323D01*
X158446265Y-41624323D02*
X158398646Y-41433847D01*
X158398646Y-41433847D02*
X158398646Y-41290990D01*
X158398646Y-41290990D02*
X158446265Y-41100514D01*
X158446265Y-41100514D02*
X158493884Y-41005276D01*
X158493884Y-41005276D02*
X158589122Y-40910038D01*
X158589122Y-40910038D02*
X158731979Y-40862419D01*
X158731979Y-40862419D02*
X158827217Y-40862419D01*
X158827217Y-40862419D02*
X158970074Y-40910038D01*
X158970074Y-40910038D02*
X159017693Y-40957657D01*
X159922455Y-41862419D02*
X159446265Y-41862419D01*
X159446265Y-41862419D02*
X159446265Y-40862419D01*
X149351027Y-43362419D02*
X149922455Y-43362419D01*
X149636741Y-44362419D02*
X149636741Y-43362419D01*
X150160551Y-43362419D02*
X150827217Y-44362419D01*
X150827217Y-43362419D02*
X150160551Y-44362419D01*
X157446265Y-44314800D02*
X157589122Y-44362419D01*
X157589122Y-44362419D02*
X157827217Y-44362419D01*
X157827217Y-44362419D02*
X157922455Y-44314800D01*
X157922455Y-44314800D02*
X157970074Y-44267180D01*
X157970074Y-44267180D02*
X158017693Y-44171942D01*
X158017693Y-44171942D02*
X158017693Y-44076704D01*
X158017693Y-44076704D02*
X157970074Y-43981466D01*
X157970074Y-43981466D02*
X157922455Y-43933847D01*
X157922455Y-43933847D02*
X157827217Y-43886228D01*
X157827217Y-43886228D02*
X157636741Y-43838609D01*
X157636741Y-43838609D02*
X157541503Y-43790990D01*
X157541503Y-43790990D02*
X157493884Y-43743371D01*
X157493884Y-43743371D02*
X157446265Y-43648133D01*
X157446265Y-43648133D02*
X157446265Y-43552895D01*
X157446265Y-43552895D02*
X157493884Y-43457657D01*
X157493884Y-43457657D02*
X157541503Y-43410038D01*
X157541503Y-43410038D02*
X157636741Y-43362419D01*
X157636741Y-43362419D02*
X157874836Y-43362419D01*
X157874836Y-43362419D02*
X158017693Y-43410038D01*
X158446265Y-44362419D02*
X158446265Y-43362419D01*
X158446265Y-43362419D02*
X158684360Y-43362419D01*
X158684360Y-43362419D02*
X158827217Y-43410038D01*
X158827217Y-43410038D02*
X158922455Y-43505276D01*
X158922455Y-43505276D02*
X158970074Y-43600514D01*
X158970074Y-43600514D02*
X159017693Y-43790990D01*
X159017693Y-43790990D02*
X159017693Y-43933847D01*
X159017693Y-43933847D02*
X158970074Y-44124323D01*
X158970074Y-44124323D02*
X158922455Y-44219561D01*
X158922455Y-44219561D02*
X158827217Y-44314800D01*
X158827217Y-44314800D02*
X158684360Y-44362419D01*
X158684360Y-44362419D02*
X158446265Y-44362419D01*
X159398646Y-44076704D02*
X159874836Y-44076704D01*
X159303408Y-44362419D02*
X159636741Y-43362419D01*
X159636741Y-43362419D02*
X159970074Y-44362419D01*
X150017693Y-45910038D02*
X149922455Y-45862419D01*
X149922455Y-45862419D02*
X149779598Y-45862419D01*
X149779598Y-45862419D02*
X149636741Y-45910038D01*
X149636741Y-45910038D02*
X149541503Y-46005276D01*
X149541503Y-46005276D02*
X149493884Y-46100514D01*
X149493884Y-46100514D02*
X149446265Y-46290990D01*
X149446265Y-46290990D02*
X149446265Y-46433847D01*
X149446265Y-46433847D02*
X149493884Y-46624323D01*
X149493884Y-46624323D02*
X149541503Y-46719561D01*
X149541503Y-46719561D02*
X149636741Y-46814800D01*
X149636741Y-46814800D02*
X149779598Y-46862419D01*
X149779598Y-46862419D02*
X149874836Y-46862419D01*
X149874836Y-46862419D02*
X150017693Y-46814800D01*
X150017693Y-46814800D02*
X150065312Y-46767180D01*
X150065312Y-46767180D02*
X150065312Y-46433847D01*
X150065312Y-46433847D02*
X149874836Y-46433847D01*
X150493884Y-46862419D02*
X150493884Y-45862419D01*
X150493884Y-45862419D02*
X151065312Y-46862419D01*
X151065312Y-46862419D02*
X151065312Y-45862419D01*
X151541503Y-46862419D02*
X151541503Y-45862419D01*
X151541503Y-45862419D02*
X151779598Y-45862419D01*
X151779598Y-45862419D02*
X151922455Y-45910038D01*
X151922455Y-45910038D02*
X152017693Y-46005276D01*
X152017693Y-46005276D02*
X152065312Y-46100514D01*
X152065312Y-46100514D02*
X152112931Y-46290990D01*
X152112931Y-46290990D02*
X152112931Y-46433847D01*
X152112931Y-46433847D02*
X152065312Y-46624323D01*
X152065312Y-46624323D02*
X152017693Y-46719561D01*
X152017693Y-46719561D02*
X151922455Y-46814800D01*
X151922455Y-46814800D02*
X151779598Y-46862419D01*
X151779598Y-46862419D02*
X151541503Y-46862419D01*
X158493884Y-36862419D02*
X158493884Y-35862419D01*
X158493884Y-35862419D02*
X158731979Y-35862419D01*
X158731979Y-35862419D02*
X158874836Y-35910038D01*
X158874836Y-35910038D02*
X158970074Y-36005276D01*
X158970074Y-36005276D02*
X159017693Y-36100514D01*
X159017693Y-36100514D02*
X159065312Y-36290990D01*
X159065312Y-36290990D02*
X159065312Y-36433847D01*
X159065312Y-36433847D02*
X159017693Y-36624323D01*
X159017693Y-36624323D02*
X158970074Y-36719561D01*
X158970074Y-36719561D02*
X158874836Y-36814800D01*
X158874836Y-36814800D02*
X158731979Y-36862419D01*
X158731979Y-36862419D02*
X158493884Y-36862419D01*
X159446265Y-35957657D02*
X159493884Y-35910038D01*
X159493884Y-35910038D02*
X159589122Y-35862419D01*
X159589122Y-35862419D02*
X159827217Y-35862419D01*
X159827217Y-35862419D02*
X159922455Y-35910038D01*
X159922455Y-35910038D02*
X159970074Y-35957657D01*
X159970074Y-35957657D02*
X160017693Y-36052895D01*
X160017693Y-36052895D02*
X160017693Y-36148133D01*
X160017693Y-36148133D02*
X159970074Y-36290990D01*
X159970074Y-36290990D02*
X159398646Y-36862419D01*
X159398646Y-36862419D02*
X160017693Y-36862419D01*
X149493884Y-49362419D02*
X149493884Y-48362419D01*
X149493884Y-48362419D02*
X149731979Y-48362419D01*
X149731979Y-48362419D02*
X149874836Y-48410038D01*
X149874836Y-48410038D02*
X149970074Y-48505276D01*
X149970074Y-48505276D02*
X150017693Y-48600514D01*
X150017693Y-48600514D02*
X150065312Y-48790990D01*
X150065312Y-48790990D02*
X150065312Y-48933847D01*
X150065312Y-48933847D02*
X150017693Y-49124323D01*
X150017693Y-49124323D02*
X149970074Y-49219561D01*
X149970074Y-49219561D02*
X149874836Y-49314800D01*
X149874836Y-49314800D02*
X149731979Y-49362419D01*
X149731979Y-49362419D02*
X149493884Y-49362419D01*
X151017693Y-49362419D02*
X150446265Y-49362419D01*
X150731979Y-49362419D02*
X150731979Y-48362419D01*
X150731979Y-48362419D02*
X150636741Y-48505276D01*
X150636741Y-48505276D02*
X150541503Y-48600514D01*
X150541503Y-48600514D02*
X150446265Y-48648133D01*
X150065312Y-41862419D02*
X149731979Y-41386228D01*
X149493884Y-41862419D02*
X149493884Y-40862419D01*
X149493884Y-40862419D02*
X149874836Y-40862419D01*
X149874836Y-40862419D02*
X149970074Y-40910038D01*
X149970074Y-40910038D02*
X150017693Y-40957657D01*
X150017693Y-40957657D02*
X150065312Y-41052895D01*
X150065312Y-41052895D02*
X150065312Y-41195752D01*
X150065312Y-41195752D02*
X150017693Y-41290990D01*
X150017693Y-41290990D02*
X149970074Y-41338609D01*
X149970074Y-41338609D02*
X149874836Y-41386228D01*
X149874836Y-41386228D02*
X149493884Y-41386228D01*
X150398646Y-40862419D02*
X151065312Y-41862419D01*
X151065312Y-40862419D02*
X150398646Y-41862419D01*
X158493884Y-49362419D02*
X158493884Y-48362419D01*
X158493884Y-48362419D02*
X158731979Y-48362419D01*
X158731979Y-48362419D02*
X158874836Y-48410038D01*
X158874836Y-48410038D02*
X158970074Y-48505276D01*
X158970074Y-48505276D02*
X159017693Y-48600514D01*
X159017693Y-48600514D02*
X159065312Y-48790990D01*
X159065312Y-48790990D02*
X159065312Y-48933847D01*
X159065312Y-48933847D02*
X159017693Y-49124323D01*
X159017693Y-49124323D02*
X158970074Y-49219561D01*
X158970074Y-49219561D02*
X158874836Y-49314800D01*
X158874836Y-49314800D02*
X158731979Y-49362419D01*
X158731979Y-49362419D02*
X158493884Y-49362419D01*
X159922455Y-48695752D02*
X159922455Y-49362419D01*
X159684360Y-48314800D02*
X159446265Y-49029085D01*
X159446265Y-49029085D02*
X160065312Y-49029085D01*
X157351027Y-38362419D02*
X157684360Y-39362419D01*
X157684360Y-39362419D02*
X158017693Y-38362419D01*
X158922455Y-39267180D02*
X158874836Y-39314800D01*
X158874836Y-39314800D02*
X158731979Y-39362419D01*
X158731979Y-39362419D02*
X158636741Y-39362419D01*
X158636741Y-39362419D02*
X158493884Y-39314800D01*
X158493884Y-39314800D02*
X158398646Y-39219561D01*
X158398646Y-39219561D02*
X158351027Y-39124323D01*
X158351027Y-39124323D02*
X158303408Y-38933847D01*
X158303408Y-38933847D02*
X158303408Y-38790990D01*
X158303408Y-38790990D02*
X158351027Y-38600514D01*
X158351027Y-38600514D02*
X158398646Y-38505276D01*
X158398646Y-38505276D02*
X158493884Y-38410038D01*
X158493884Y-38410038D02*
X158636741Y-38362419D01*
X158636741Y-38362419D02*
X158731979Y-38362419D01*
X158731979Y-38362419D02*
X158874836Y-38410038D01*
X158874836Y-38410038D02*
X158922455Y-38457657D01*
X159922455Y-39267180D02*
X159874836Y-39314800D01*
X159874836Y-39314800D02*
X159731979Y-39362419D01*
X159731979Y-39362419D02*
X159636741Y-39362419D01*
X159636741Y-39362419D02*
X159493884Y-39314800D01*
X159493884Y-39314800D02*
X159398646Y-39219561D01*
X159398646Y-39219561D02*
X159351027Y-39124323D01*
X159351027Y-39124323D02*
X159303408Y-38933847D01*
X159303408Y-38933847D02*
X159303408Y-38790990D01*
X159303408Y-38790990D02*
X159351027Y-38600514D01*
X159351027Y-38600514D02*
X159398646Y-38505276D01*
X159398646Y-38505276D02*
X159493884Y-38410038D01*
X159493884Y-38410038D02*
X159636741Y-38362419D01*
X159636741Y-38362419D02*
X159731979Y-38362419D01*
X159731979Y-38362419D02*
X159874836Y-38410038D01*
X159874836Y-38410038D02*
X159922455Y-38457657D01*
X149351027Y-38362419D02*
X149684360Y-39362419D01*
X149684360Y-39362419D02*
X150017693Y-38362419D01*
X150922455Y-39267180D02*
X150874836Y-39314800D01*
X150874836Y-39314800D02*
X150731979Y-39362419D01*
X150731979Y-39362419D02*
X150636741Y-39362419D01*
X150636741Y-39362419D02*
X150493884Y-39314800D01*
X150493884Y-39314800D02*
X150398646Y-39219561D01*
X150398646Y-39219561D02*
X150351027Y-39124323D01*
X150351027Y-39124323D02*
X150303408Y-38933847D01*
X150303408Y-38933847D02*
X150303408Y-38790990D01*
X150303408Y-38790990D02*
X150351027Y-38600514D01*
X150351027Y-38600514D02*
X150398646Y-38505276D01*
X150398646Y-38505276D02*
X150493884Y-38410038D01*
X150493884Y-38410038D02*
X150636741Y-38362419D01*
X150636741Y-38362419D02*
X150731979Y-38362419D01*
X150731979Y-38362419D02*
X150874836Y-38410038D01*
X150874836Y-38410038D02*
X150922455Y-38457657D01*
X151922455Y-39267180D02*
X151874836Y-39314800D01*
X151874836Y-39314800D02*
X151731979Y-39362419D01*
X151731979Y-39362419D02*
X151636741Y-39362419D01*
X151636741Y-39362419D02*
X151493884Y-39314800D01*
X151493884Y-39314800D02*
X151398646Y-39219561D01*
X151398646Y-39219561D02*
X151351027Y-39124323D01*
X151351027Y-39124323D02*
X151303408Y-38933847D01*
X151303408Y-38933847D02*
X151303408Y-38790990D01*
X151303408Y-38790990D02*
X151351027Y-38600514D01*
X151351027Y-38600514D02*
X151398646Y-38505276D01*
X151398646Y-38505276D02*
X151493884Y-38410038D01*
X151493884Y-38410038D02*
X151636741Y-38362419D01*
X151636741Y-38362419D02*
X151731979Y-38362419D01*
X151731979Y-38362419D02*
X151874836Y-38410038D01*
X151874836Y-38410038D02*
X151922455Y-38457657D01*
X158017693Y-45910038D02*
X157922455Y-45862419D01*
X157922455Y-45862419D02*
X157779598Y-45862419D01*
X157779598Y-45862419D02*
X157636741Y-45910038D01*
X157636741Y-45910038D02*
X157541503Y-46005276D01*
X157541503Y-46005276D02*
X157493884Y-46100514D01*
X157493884Y-46100514D02*
X157446265Y-46290990D01*
X157446265Y-46290990D02*
X157446265Y-46433847D01*
X157446265Y-46433847D02*
X157493884Y-46624323D01*
X157493884Y-46624323D02*
X157541503Y-46719561D01*
X157541503Y-46719561D02*
X157636741Y-46814800D01*
X157636741Y-46814800D02*
X157779598Y-46862419D01*
X157779598Y-46862419D02*
X157874836Y-46862419D01*
X157874836Y-46862419D02*
X158017693Y-46814800D01*
X158017693Y-46814800D02*
X158065312Y-46767180D01*
X158065312Y-46767180D02*
X158065312Y-46433847D01*
X158065312Y-46433847D02*
X157874836Y-46433847D01*
X158493884Y-46862419D02*
X158493884Y-45862419D01*
X158493884Y-45862419D02*
X159065312Y-46862419D01*
X159065312Y-46862419D02*
X159065312Y-45862419D01*
X159541503Y-46862419D02*
X159541503Y-45862419D01*
X159541503Y-45862419D02*
X159779598Y-45862419D01*
X159779598Y-45862419D02*
X159922455Y-45910038D01*
X159922455Y-45910038D02*
X160017693Y-46005276D01*
X160017693Y-46005276D02*
X160065312Y-46100514D01*
X160065312Y-46100514D02*
X160112931Y-46290990D01*
X160112931Y-46290990D02*
X160112931Y-46433847D01*
X160112931Y-46433847D02*
X160065312Y-46624323D01*
X160065312Y-46624323D02*
X160017693Y-46719561D01*
X160017693Y-46719561D02*
X159922455Y-46814800D01*
X159922455Y-46814800D02*
X159779598Y-46862419D01*
X159779598Y-46862419D02*
X159541503Y-46862419D01*
X149493884Y-36862419D02*
X149493884Y-35862419D01*
X149493884Y-35862419D02*
X149731979Y-35862419D01*
X149731979Y-35862419D02*
X149874836Y-35910038D01*
X149874836Y-35910038D02*
X149970074Y-36005276D01*
X149970074Y-36005276D02*
X150017693Y-36100514D01*
X150017693Y-36100514D02*
X150065312Y-36290990D01*
X150065312Y-36290990D02*
X150065312Y-36433847D01*
X150065312Y-36433847D02*
X150017693Y-36624323D01*
X150017693Y-36624323D02*
X149970074Y-36719561D01*
X149970074Y-36719561D02*
X149874836Y-36814800D01*
X149874836Y-36814800D02*
X149731979Y-36862419D01*
X149731979Y-36862419D02*
X149493884Y-36862419D01*
X150684360Y-35862419D02*
X150779598Y-35862419D01*
X150779598Y-35862419D02*
X150874836Y-35910038D01*
X150874836Y-35910038D02*
X150922455Y-35957657D01*
X150922455Y-35957657D02*
X150970074Y-36052895D01*
X150970074Y-36052895D02*
X151017693Y-36243371D01*
X151017693Y-36243371D02*
X151017693Y-36481466D01*
X151017693Y-36481466D02*
X150970074Y-36671942D01*
X150970074Y-36671942D02*
X150922455Y-36767180D01*
X150922455Y-36767180D02*
X150874836Y-36814800D01*
X150874836Y-36814800D02*
X150779598Y-36862419D01*
X150779598Y-36862419D02*
X150684360Y-36862419D01*
X150684360Y-36862419D02*
X150589122Y-36814800D01*
X150589122Y-36814800D02*
X150541503Y-36767180D01*
X150541503Y-36767180D02*
X150493884Y-36671942D01*
X150493884Y-36671942D02*
X150446265Y-36481466D01*
X150446265Y-36481466D02*
X150446265Y-36243371D01*
X150446265Y-36243371D02*
X150493884Y-36052895D01*
X150493884Y-36052895D02*
X150541503Y-35957657D01*
X150541503Y-35957657D02*
X150589122Y-35910038D01*
X150589122Y-35910038D02*
X150684360Y-35862419D01*
D10*
X117111428Y-74081009D02*
X117254285Y-74128628D01*
X117254285Y-74128628D02*
X117301904Y-74176247D01*
X117301904Y-74176247D02*
X117349523Y-74271485D01*
X117349523Y-74271485D02*
X117349523Y-74414342D01*
X117349523Y-74414342D02*
X117301904Y-74509580D01*
X117301904Y-74509580D02*
X117254285Y-74557200D01*
X117254285Y-74557200D02*
X117159047Y-74604819D01*
X117159047Y-74604819D02*
X116778095Y-74604819D01*
X116778095Y-74604819D02*
X116778095Y-73604819D01*
X116778095Y-73604819D02*
X117111428Y-73604819D01*
X117111428Y-73604819D02*
X117206666Y-73652438D01*
X117206666Y-73652438D02*
X117254285Y-73700057D01*
X117254285Y-73700057D02*
X117301904Y-73795295D01*
X117301904Y-73795295D02*
X117301904Y-73890533D01*
X117301904Y-73890533D02*
X117254285Y-73985771D01*
X117254285Y-73985771D02*
X117206666Y-74033390D01*
X117206666Y-74033390D02*
X117111428Y-74081009D01*
X117111428Y-74081009D02*
X116778095Y-74081009D01*
X117778095Y-74604819D02*
X117778095Y-73604819D01*
X117778095Y-73604819D02*
X118111428Y-74319104D01*
X118111428Y-74319104D02*
X118444761Y-73604819D01*
X118444761Y-73604819D02*
X118444761Y-74604819D01*
X118920952Y-74604819D02*
X118920952Y-73604819D01*
X118920952Y-73604819D02*
X119301904Y-73604819D01*
X119301904Y-73604819D02*
X119397142Y-73652438D01*
X119397142Y-73652438D02*
X119444761Y-73700057D01*
X119444761Y-73700057D02*
X119492380Y-73795295D01*
X119492380Y-73795295D02*
X119492380Y-73938152D01*
X119492380Y-73938152D02*
X119444761Y-74033390D01*
X119444761Y-74033390D02*
X119397142Y-74081009D01*
X119397142Y-74081009D02*
X119301904Y-74128628D01*
X119301904Y-74128628D02*
X118920952Y-74128628D01*
X119825714Y-73604819D02*
X120444761Y-73604819D01*
X120444761Y-73604819D02*
X120111428Y-73985771D01*
X120111428Y-73985771D02*
X120254285Y-73985771D01*
X120254285Y-73985771D02*
X120349523Y-74033390D01*
X120349523Y-74033390D02*
X120397142Y-74081009D01*
X120397142Y-74081009D02*
X120444761Y-74176247D01*
X120444761Y-74176247D02*
X120444761Y-74414342D01*
X120444761Y-74414342D02*
X120397142Y-74509580D01*
X120397142Y-74509580D02*
X120349523Y-74557200D01*
X120349523Y-74557200D02*
X120254285Y-74604819D01*
X120254285Y-74604819D02*
X119968571Y-74604819D01*
X119968571Y-74604819D02*
X119873333Y-74557200D01*
X119873333Y-74557200D02*
X119825714Y-74509580D01*
X121016190Y-74033390D02*
X120920952Y-73985771D01*
X120920952Y-73985771D02*
X120873333Y-73938152D01*
X120873333Y-73938152D02*
X120825714Y-73842914D01*
X120825714Y-73842914D02*
X120825714Y-73795295D01*
X120825714Y-73795295D02*
X120873333Y-73700057D01*
X120873333Y-73700057D02*
X120920952Y-73652438D01*
X120920952Y-73652438D02*
X121016190Y-73604819D01*
X121016190Y-73604819D02*
X121206666Y-73604819D01*
X121206666Y-73604819D02*
X121301904Y-73652438D01*
X121301904Y-73652438D02*
X121349523Y-73700057D01*
X121349523Y-73700057D02*
X121397142Y-73795295D01*
X121397142Y-73795295D02*
X121397142Y-73842914D01*
X121397142Y-73842914D02*
X121349523Y-73938152D01*
X121349523Y-73938152D02*
X121301904Y-73985771D01*
X121301904Y-73985771D02*
X121206666Y-74033390D01*
X121206666Y-74033390D02*
X121016190Y-74033390D01*
X121016190Y-74033390D02*
X120920952Y-74081009D01*
X120920952Y-74081009D02*
X120873333Y-74128628D01*
X120873333Y-74128628D02*
X120825714Y-74223866D01*
X120825714Y-74223866D02*
X120825714Y-74414342D01*
X120825714Y-74414342D02*
X120873333Y-74509580D01*
X120873333Y-74509580D02*
X120920952Y-74557200D01*
X120920952Y-74557200D02*
X121016190Y-74604819D01*
X121016190Y-74604819D02*
X121206666Y-74604819D01*
X121206666Y-74604819D02*
X121301904Y-74557200D01*
X121301904Y-74557200D02*
X121349523Y-74509580D01*
X121349523Y-74509580D02*
X121397142Y-74414342D01*
X121397142Y-74414342D02*
X121397142Y-74223866D01*
X121397142Y-74223866D02*
X121349523Y-74128628D01*
X121349523Y-74128628D02*
X121301904Y-74081009D01*
X121301904Y-74081009D02*
X121206666Y-74033390D01*
X121968571Y-74033390D02*
X121873333Y-73985771D01*
X121873333Y-73985771D02*
X121825714Y-73938152D01*
X121825714Y-73938152D02*
X121778095Y-73842914D01*
X121778095Y-73842914D02*
X121778095Y-73795295D01*
X121778095Y-73795295D02*
X121825714Y-73700057D01*
X121825714Y-73700057D02*
X121873333Y-73652438D01*
X121873333Y-73652438D02*
X121968571Y-73604819D01*
X121968571Y-73604819D02*
X122159047Y-73604819D01*
X122159047Y-73604819D02*
X122254285Y-73652438D01*
X122254285Y-73652438D02*
X122301904Y-73700057D01*
X122301904Y-73700057D02*
X122349523Y-73795295D01*
X122349523Y-73795295D02*
X122349523Y-73842914D01*
X122349523Y-73842914D02*
X122301904Y-73938152D01*
X122301904Y-73938152D02*
X122254285Y-73985771D01*
X122254285Y-73985771D02*
X122159047Y-74033390D01*
X122159047Y-74033390D02*
X121968571Y-74033390D01*
X121968571Y-74033390D02*
X121873333Y-74081009D01*
X121873333Y-74081009D02*
X121825714Y-74128628D01*
X121825714Y-74128628D02*
X121778095Y-74223866D01*
X121778095Y-74223866D02*
X121778095Y-74414342D01*
X121778095Y-74414342D02*
X121825714Y-74509580D01*
X121825714Y-74509580D02*
X121873333Y-74557200D01*
X121873333Y-74557200D02*
X121968571Y-74604819D01*
X121968571Y-74604819D02*
X122159047Y-74604819D01*
X122159047Y-74604819D02*
X122254285Y-74557200D01*
X122254285Y-74557200D02*
X122301904Y-74509580D01*
X122301904Y-74509580D02*
X122349523Y-74414342D01*
X122349523Y-74414342D02*
X122349523Y-74223866D01*
X122349523Y-74223866D02*
X122301904Y-74128628D01*
X122301904Y-74128628D02*
X122254285Y-74081009D01*
X122254285Y-74081009D02*
X122159047Y-74033390D01*
X134886666Y-63291033D02*
X134886666Y-62591033D01*
X134886666Y-62591033D02*
X135053333Y-62591033D01*
X135053333Y-62591033D02*
X135153333Y-62624366D01*
X135153333Y-62624366D02*
X135220000Y-62691033D01*
X135220000Y-62691033D02*
X135253333Y-62757700D01*
X135253333Y-62757700D02*
X135286666Y-62891033D01*
X135286666Y-62891033D02*
X135286666Y-62991033D01*
X135286666Y-62991033D02*
X135253333Y-63124366D01*
X135253333Y-63124366D02*
X135220000Y-63191033D01*
X135220000Y-63191033D02*
X135153333Y-63257700D01*
X135153333Y-63257700D02*
X135053333Y-63291033D01*
X135053333Y-63291033D02*
X134886666Y-63291033D01*
X135486666Y-62591033D02*
X135720000Y-63291033D01*
X135720000Y-63291033D02*
X135953333Y-62591033D01*
X136386666Y-62591033D02*
X136386666Y-63091033D01*
X136386666Y-63091033D02*
X136353333Y-63191033D01*
X136353333Y-63191033D02*
X136286666Y-63257700D01*
X136286666Y-63257700D02*
X136186666Y-63291033D01*
X136186666Y-63291033D02*
X136120000Y-63291033D01*
X137019999Y-62591033D02*
X136886666Y-62591033D01*
X136886666Y-62591033D02*
X136819999Y-62624366D01*
X136819999Y-62624366D02*
X136786666Y-62657700D01*
X136786666Y-62657700D02*
X136719999Y-62757700D01*
X136719999Y-62757700D02*
X136686666Y-62891033D01*
X136686666Y-62891033D02*
X136686666Y-63157700D01*
X136686666Y-63157700D02*
X136719999Y-63224366D01*
X136719999Y-63224366D02*
X136753333Y-63257700D01*
X136753333Y-63257700D02*
X136819999Y-63291033D01*
X136819999Y-63291033D02*
X136953333Y-63291033D01*
X136953333Y-63291033D02*
X137019999Y-63257700D01*
X137019999Y-63257700D02*
X137053333Y-63224366D01*
X137053333Y-63224366D02*
X137086666Y-63157700D01*
X137086666Y-63157700D02*
X137086666Y-62991033D01*
X137086666Y-62991033D02*
X137053333Y-62924366D01*
X137053333Y-62924366D02*
X137019999Y-62891033D01*
X137019999Y-62891033D02*
X136953333Y-62857700D01*
X136953333Y-62857700D02*
X136819999Y-62857700D01*
X136819999Y-62857700D02*
X136753333Y-62891033D01*
X136753333Y-62891033D02*
X136719999Y-62924366D01*
X136719999Y-62924366D02*
X136686666Y-62991033D01*
X137353333Y-63091033D02*
X137686666Y-63091033D01*
X137286666Y-63291033D02*
X137520000Y-62591033D01*
X137520000Y-62591033D02*
X137753333Y-63291033D01*
X133006666Y-64561033D02*
X133006666Y-63861033D01*
X133006666Y-63861033D02*
X133240000Y-64361033D01*
X133240000Y-64361033D02*
X133473333Y-63861033D01*
X133473333Y-63861033D02*
X133473333Y-64561033D01*
X133806666Y-64561033D02*
X133806666Y-63861033D01*
X134139999Y-64561033D02*
X134139999Y-63861033D01*
X134139999Y-63861033D02*
X134373333Y-64361033D01*
X134373333Y-64361033D02*
X134606666Y-63861033D01*
X134606666Y-63861033D02*
X134606666Y-64561033D01*
X134873333Y-63861033D02*
X135339999Y-64561033D01*
X135339999Y-63861033D02*
X134873333Y-64561033D01*
X136006666Y-64561033D02*
X135773333Y-64227700D01*
X135606666Y-64561033D02*
X135606666Y-63861033D01*
X135606666Y-63861033D02*
X135873333Y-63861033D01*
X135873333Y-63861033D02*
X135940000Y-63894366D01*
X135940000Y-63894366D02*
X135973333Y-63927700D01*
X135973333Y-63927700D02*
X136006666Y-63994366D01*
X136006666Y-63994366D02*
X136006666Y-64094366D01*
X136006666Y-64094366D02*
X135973333Y-64161033D01*
X135973333Y-64161033D02*
X135940000Y-64194366D01*
X135940000Y-64194366D02*
X135873333Y-64227700D01*
X135873333Y-64227700D02*
X135606666Y-64227700D01*
X136206666Y-63861033D02*
X136606666Y-63861033D01*
X136406666Y-64561033D02*
X136406666Y-63861033D01*
X137206666Y-64561033D02*
X136806666Y-64561033D01*
X137006666Y-64561033D02*
X137006666Y-63861033D01*
X137006666Y-63861033D02*
X136939999Y-63961033D01*
X136939999Y-63961033D02*
X136873333Y-64027700D01*
X136873333Y-64027700D02*
X136806666Y-64061033D01*
X137640000Y-63861033D02*
X137706666Y-63861033D01*
X137706666Y-63861033D02*
X137773333Y-63894366D01*
X137773333Y-63894366D02*
X137806666Y-63927700D01*
X137806666Y-63927700D02*
X137840000Y-63994366D01*
X137840000Y-63994366D02*
X137873333Y-64127700D01*
X137873333Y-64127700D02*
X137873333Y-64294366D01*
X137873333Y-64294366D02*
X137840000Y-64427700D01*
X137840000Y-64427700D02*
X137806666Y-64494366D01*
X137806666Y-64494366D02*
X137773333Y-64527700D01*
X137773333Y-64527700D02*
X137706666Y-64561033D01*
X137706666Y-64561033D02*
X137640000Y-64561033D01*
X137640000Y-64561033D02*
X137573333Y-64527700D01*
X137573333Y-64527700D02*
X137540000Y-64494366D01*
X137540000Y-64494366D02*
X137506666Y-64427700D01*
X137506666Y-64427700D02*
X137473333Y-64294366D01*
X137473333Y-64294366D02*
X137473333Y-64127700D01*
X137473333Y-64127700D02*
X137506666Y-63994366D01*
X137506666Y-63994366D02*
X137540000Y-63927700D01*
X137540000Y-63927700D02*
X137573333Y-63894366D01*
X137573333Y-63894366D02*
X137640000Y-63861033D01*
X138473333Y-63861033D02*
X138340000Y-63861033D01*
X138340000Y-63861033D02*
X138273333Y-63894366D01*
X138273333Y-63894366D02*
X138240000Y-63927700D01*
X138240000Y-63927700D02*
X138173333Y-64027700D01*
X138173333Y-64027700D02*
X138140000Y-64161033D01*
X138140000Y-64161033D02*
X138140000Y-64427700D01*
X138140000Y-64427700D02*
X138173333Y-64494366D01*
X138173333Y-64494366D02*
X138206667Y-64527700D01*
X138206667Y-64527700D02*
X138273333Y-64561033D01*
X138273333Y-64561033D02*
X138406667Y-64561033D01*
X138406667Y-64561033D02*
X138473333Y-64527700D01*
X138473333Y-64527700D02*
X138506667Y-64494366D01*
X138506667Y-64494366D02*
X138540000Y-64427700D01*
X138540000Y-64427700D02*
X138540000Y-64261033D01*
X138540000Y-64261033D02*
X138506667Y-64194366D01*
X138506667Y-64194366D02*
X138473333Y-64161033D01*
X138473333Y-64161033D02*
X138406667Y-64127700D01*
X138406667Y-64127700D02*
X138273333Y-64127700D01*
X138273333Y-64127700D02*
X138206667Y-64161033D01*
X138206667Y-64161033D02*
X138173333Y-64194366D01*
X138173333Y-64194366D02*
X138140000Y-64261033D01*
X138806667Y-63927700D02*
X138840000Y-63894366D01*
X138840000Y-63894366D02*
X138906667Y-63861033D01*
X138906667Y-63861033D02*
X139073334Y-63861033D01*
X139073334Y-63861033D02*
X139140000Y-63894366D01*
X139140000Y-63894366D02*
X139173334Y-63927700D01*
X139173334Y-63927700D02*
X139206667Y-63994366D01*
X139206667Y-63994366D02*
X139206667Y-64061033D01*
X139206667Y-64061033D02*
X139173334Y-64161033D01*
X139173334Y-64161033D02*
X138773334Y-64561033D01*
X138773334Y-64561033D02*
X139206667Y-64561033D01*
X136544819Y-92764047D02*
X135544819Y-92764047D01*
X135544819Y-92764047D02*
X136259104Y-92430714D01*
X136259104Y-92430714D02*
X135544819Y-92097381D01*
X135544819Y-92097381D02*
X136544819Y-92097381D01*
X136544819Y-91621190D02*
X135878152Y-91621190D01*
X135544819Y-91621190D02*
X135592438Y-91668809D01*
X135592438Y-91668809D02*
X135640057Y-91621190D01*
X135640057Y-91621190D02*
X135592438Y-91573571D01*
X135592438Y-91573571D02*
X135544819Y-91621190D01*
X135544819Y-91621190D02*
X135640057Y-91621190D01*
X136497200Y-90716429D02*
X136544819Y-90811667D01*
X136544819Y-90811667D02*
X136544819Y-91002143D01*
X136544819Y-91002143D02*
X136497200Y-91097381D01*
X136497200Y-91097381D02*
X136449580Y-91145000D01*
X136449580Y-91145000D02*
X136354342Y-91192619D01*
X136354342Y-91192619D02*
X136068628Y-91192619D01*
X136068628Y-91192619D02*
X135973390Y-91145000D01*
X135973390Y-91145000D02*
X135925771Y-91097381D01*
X135925771Y-91097381D02*
X135878152Y-91002143D01*
X135878152Y-91002143D02*
X135878152Y-90811667D01*
X135878152Y-90811667D02*
X135925771Y-90716429D01*
X136544819Y-90287857D02*
X135878152Y-90287857D01*
X136068628Y-90287857D02*
X135973390Y-90240238D01*
X135973390Y-90240238D02*
X135925771Y-90192619D01*
X135925771Y-90192619D02*
X135878152Y-90097381D01*
X135878152Y-90097381D02*
X135878152Y-90002143D01*
X136544819Y-89525952D02*
X136497200Y-89621190D01*
X136497200Y-89621190D02*
X136449580Y-89668809D01*
X136449580Y-89668809D02*
X136354342Y-89716428D01*
X136354342Y-89716428D02*
X136068628Y-89716428D01*
X136068628Y-89716428D02*
X135973390Y-89668809D01*
X135973390Y-89668809D02*
X135925771Y-89621190D01*
X135925771Y-89621190D02*
X135878152Y-89525952D01*
X135878152Y-89525952D02*
X135878152Y-89383095D01*
X135878152Y-89383095D02*
X135925771Y-89287857D01*
X135925771Y-89287857D02*
X135973390Y-89240238D01*
X135973390Y-89240238D02*
X136068628Y-89192619D01*
X136068628Y-89192619D02*
X136354342Y-89192619D01*
X136354342Y-89192619D02*
X136449580Y-89240238D01*
X136449580Y-89240238D02*
X136497200Y-89287857D01*
X136497200Y-89287857D02*
X136544819Y-89383095D01*
X136544819Y-89383095D02*
X136544819Y-89525952D01*
X136497200Y-88049761D02*
X136544819Y-87906904D01*
X136544819Y-87906904D02*
X136544819Y-87668809D01*
X136544819Y-87668809D02*
X136497200Y-87573571D01*
X136497200Y-87573571D02*
X136449580Y-87525952D01*
X136449580Y-87525952D02*
X136354342Y-87478333D01*
X136354342Y-87478333D02*
X136259104Y-87478333D01*
X136259104Y-87478333D02*
X136163866Y-87525952D01*
X136163866Y-87525952D02*
X136116247Y-87573571D01*
X136116247Y-87573571D02*
X136068628Y-87668809D01*
X136068628Y-87668809D02*
X136021009Y-87859285D01*
X136021009Y-87859285D02*
X135973390Y-87954523D01*
X135973390Y-87954523D02*
X135925771Y-88002142D01*
X135925771Y-88002142D02*
X135830533Y-88049761D01*
X135830533Y-88049761D02*
X135735295Y-88049761D01*
X135735295Y-88049761D02*
X135640057Y-88002142D01*
X135640057Y-88002142D02*
X135592438Y-87954523D01*
X135592438Y-87954523D02*
X135544819Y-87859285D01*
X135544819Y-87859285D02*
X135544819Y-87621190D01*
X135544819Y-87621190D02*
X135592438Y-87478333D01*
X136544819Y-87049761D02*
X135544819Y-87049761D01*
X135544819Y-87049761D02*
X135544819Y-86811666D01*
X135544819Y-86811666D02*
X135592438Y-86668809D01*
X135592438Y-86668809D02*
X135687676Y-86573571D01*
X135687676Y-86573571D02*
X135782914Y-86525952D01*
X135782914Y-86525952D02*
X135973390Y-86478333D01*
X135973390Y-86478333D02*
X136116247Y-86478333D01*
X136116247Y-86478333D02*
X136306723Y-86525952D01*
X136306723Y-86525952D02*
X136401961Y-86573571D01*
X136401961Y-86573571D02*
X136497200Y-86668809D01*
X136497200Y-86668809D02*
X136544819Y-86811666D01*
X136544819Y-86811666D02*
X136544819Y-87049761D01*
X134828095Y-38299819D02*
X134828095Y-39109342D01*
X134828095Y-39109342D02*
X134875714Y-39204580D01*
X134875714Y-39204580D02*
X134923333Y-39252200D01*
X134923333Y-39252200D02*
X135018571Y-39299819D01*
X135018571Y-39299819D02*
X135209047Y-39299819D01*
X135209047Y-39299819D02*
X135304285Y-39252200D01*
X135304285Y-39252200D02*
X135351904Y-39204580D01*
X135351904Y-39204580D02*
X135399523Y-39109342D01*
X135399523Y-39109342D02*
X135399523Y-38299819D01*
X135828095Y-39252200D02*
X135970952Y-39299819D01*
X135970952Y-39299819D02*
X136209047Y-39299819D01*
X136209047Y-39299819D02*
X136304285Y-39252200D01*
X136304285Y-39252200D02*
X136351904Y-39204580D01*
X136351904Y-39204580D02*
X136399523Y-39109342D01*
X136399523Y-39109342D02*
X136399523Y-39014104D01*
X136399523Y-39014104D02*
X136351904Y-38918866D01*
X136351904Y-38918866D02*
X136304285Y-38871247D01*
X136304285Y-38871247D02*
X136209047Y-38823628D01*
X136209047Y-38823628D02*
X136018571Y-38776009D01*
X136018571Y-38776009D02*
X135923333Y-38728390D01*
X135923333Y-38728390D02*
X135875714Y-38680771D01*
X135875714Y-38680771D02*
X135828095Y-38585533D01*
X135828095Y-38585533D02*
X135828095Y-38490295D01*
X135828095Y-38490295D02*
X135875714Y-38395057D01*
X135875714Y-38395057D02*
X135923333Y-38347438D01*
X135923333Y-38347438D02*
X136018571Y-38299819D01*
X136018571Y-38299819D02*
X136256666Y-38299819D01*
X136256666Y-38299819D02*
X136399523Y-38347438D01*
X137161428Y-38776009D02*
X137304285Y-38823628D01*
X137304285Y-38823628D02*
X137351904Y-38871247D01*
X137351904Y-38871247D02*
X137399523Y-38966485D01*
X137399523Y-38966485D02*
X137399523Y-39109342D01*
X137399523Y-39109342D02*
X137351904Y-39204580D01*
X137351904Y-39204580D02*
X137304285Y-39252200D01*
X137304285Y-39252200D02*
X137209047Y-39299819D01*
X137209047Y-39299819D02*
X136828095Y-39299819D01*
X136828095Y-39299819D02*
X136828095Y-38299819D01*
X136828095Y-38299819D02*
X137161428Y-38299819D01*
X137161428Y-38299819D02*
X137256666Y-38347438D01*
X137256666Y-38347438D02*
X137304285Y-38395057D01*
X137304285Y-38395057D02*
X137351904Y-38490295D01*
X137351904Y-38490295D02*
X137351904Y-38585533D01*
X137351904Y-38585533D02*
X137304285Y-38680771D01*
X137304285Y-38680771D02*
X137256666Y-38728390D01*
X137256666Y-38728390D02*
X137161428Y-38776009D01*
X137161428Y-38776009D02*
X136828095Y-38776009D01*
X136509456Y-53381009D02*
X136842789Y-53381009D01*
X136985646Y-53904819D02*
X136509456Y-53904819D01*
X136509456Y-53904819D02*
X136509456Y-52904819D01*
X136509456Y-52904819D02*
X136985646Y-52904819D01*
X137271361Y-53238152D02*
X137652313Y-53238152D01*
X137414218Y-52904819D02*
X137414218Y-53761961D01*
X137414218Y-53761961D02*
X137461837Y-53857200D01*
X137461837Y-53857200D02*
X137557075Y-53904819D01*
X137557075Y-53904819D02*
X137652313Y-53904819D01*
X137985647Y-53904819D02*
X137985647Y-52904819D01*
X138414218Y-53904819D02*
X138414218Y-53381009D01*
X138414218Y-53381009D02*
X138366599Y-53285771D01*
X138366599Y-53285771D02*
X138271361Y-53238152D01*
X138271361Y-53238152D02*
X138128504Y-53238152D01*
X138128504Y-53238152D02*
X138033266Y-53285771D01*
X138033266Y-53285771D02*
X137985647Y-53333390D01*
X139271361Y-53857200D02*
X139176123Y-53904819D01*
X139176123Y-53904819D02*
X138985647Y-53904819D01*
X138985647Y-53904819D02*
X138890409Y-53857200D01*
X138890409Y-53857200D02*
X138842790Y-53761961D01*
X138842790Y-53761961D02*
X138842790Y-53381009D01*
X138842790Y-53381009D02*
X138890409Y-53285771D01*
X138890409Y-53285771D02*
X138985647Y-53238152D01*
X138985647Y-53238152D02*
X139176123Y-53238152D01*
X139176123Y-53238152D02*
X139271361Y-53285771D01*
X139271361Y-53285771D02*
X139318980Y-53381009D01*
X139318980Y-53381009D02*
X139318980Y-53476247D01*
X139318980Y-53476247D02*
X138842790Y-53571485D01*
X139747552Y-53904819D02*
X139747552Y-53238152D01*
X139747552Y-53428628D02*
X139795171Y-53333390D01*
X139795171Y-53333390D02*
X139842790Y-53285771D01*
X139842790Y-53285771D02*
X139938028Y-53238152D01*
X139938028Y-53238152D02*
X140033266Y-53238152D01*
X140366600Y-53238152D02*
X140366600Y-53904819D01*
X140366600Y-53333390D02*
X140414219Y-53285771D01*
X140414219Y-53285771D02*
X140509457Y-53238152D01*
X140509457Y-53238152D02*
X140652314Y-53238152D01*
X140652314Y-53238152D02*
X140747552Y-53285771D01*
X140747552Y-53285771D02*
X140795171Y-53381009D01*
X140795171Y-53381009D02*
X140795171Y-53904819D01*
X141652314Y-53857200D02*
X141557076Y-53904819D01*
X141557076Y-53904819D02*
X141366600Y-53904819D01*
X141366600Y-53904819D02*
X141271362Y-53857200D01*
X141271362Y-53857200D02*
X141223743Y-53761961D01*
X141223743Y-53761961D02*
X141223743Y-53381009D01*
X141223743Y-53381009D02*
X141271362Y-53285771D01*
X141271362Y-53285771D02*
X141366600Y-53238152D01*
X141366600Y-53238152D02*
X141557076Y-53238152D01*
X141557076Y-53238152D02*
X141652314Y-53285771D01*
X141652314Y-53285771D02*
X141699933Y-53381009D01*
X141699933Y-53381009D02*
X141699933Y-53476247D01*
X141699933Y-53476247D02*
X141223743Y-53571485D01*
X141985648Y-53238152D02*
X142366600Y-53238152D01*
X142128505Y-52904819D02*
X142128505Y-53761961D01*
X142128505Y-53761961D02*
X142176124Y-53857200D01*
X142176124Y-53857200D02*
X142271362Y-53904819D01*
X142271362Y-53904819D02*
X142366600Y-53904819D01*
X133055619Y-50358723D02*
X133865142Y-50358723D01*
X133865142Y-50358723D02*
X133960380Y-50311104D01*
X133960380Y-50311104D02*
X134008000Y-50263485D01*
X134008000Y-50263485D02*
X134055619Y-50168247D01*
X134055619Y-50168247D02*
X134055619Y-49977771D01*
X134055619Y-49977771D02*
X134008000Y-49882533D01*
X134008000Y-49882533D02*
X133960380Y-49834914D01*
X133960380Y-49834914D02*
X133865142Y-49787295D01*
X133865142Y-49787295D02*
X133055619Y-49787295D01*
X134008000Y-49358723D02*
X134055619Y-49215866D01*
X134055619Y-49215866D02*
X134055619Y-48977771D01*
X134055619Y-48977771D02*
X134008000Y-48882533D01*
X134008000Y-48882533D02*
X133960380Y-48834914D01*
X133960380Y-48834914D02*
X133865142Y-48787295D01*
X133865142Y-48787295D02*
X133769904Y-48787295D01*
X133769904Y-48787295D02*
X133674666Y-48834914D01*
X133674666Y-48834914D02*
X133627047Y-48882533D01*
X133627047Y-48882533D02*
X133579428Y-48977771D01*
X133579428Y-48977771D02*
X133531809Y-49168247D01*
X133531809Y-49168247D02*
X133484190Y-49263485D01*
X133484190Y-49263485D02*
X133436571Y-49311104D01*
X133436571Y-49311104D02*
X133341333Y-49358723D01*
X133341333Y-49358723D02*
X133246095Y-49358723D01*
X133246095Y-49358723D02*
X133150857Y-49311104D01*
X133150857Y-49311104D02*
X133103238Y-49263485D01*
X133103238Y-49263485D02*
X133055619Y-49168247D01*
X133055619Y-49168247D02*
X133055619Y-48930152D01*
X133055619Y-48930152D02*
X133103238Y-48787295D01*
X133531809Y-48025390D02*
X133579428Y-47882533D01*
X133579428Y-47882533D02*
X133627047Y-47834914D01*
X133627047Y-47834914D02*
X133722285Y-47787295D01*
X133722285Y-47787295D02*
X133865142Y-47787295D01*
X133865142Y-47787295D02*
X133960380Y-47834914D01*
X133960380Y-47834914D02*
X134008000Y-47882533D01*
X134008000Y-47882533D02*
X134055619Y-47977771D01*
X134055619Y-47977771D02*
X134055619Y-48358723D01*
X134055619Y-48358723D02*
X133055619Y-48358723D01*
X133055619Y-48358723D02*
X133055619Y-48025390D01*
X133055619Y-48025390D02*
X133103238Y-47930152D01*
X133103238Y-47930152D02*
X133150857Y-47882533D01*
X133150857Y-47882533D02*
X133246095Y-47834914D01*
X133246095Y-47834914D02*
X133341333Y-47834914D01*
X133341333Y-47834914D02*
X133436571Y-47882533D01*
X133436571Y-47882533D02*
X133484190Y-47930152D01*
X133484190Y-47930152D02*
X133531809Y-48025390D01*
X133531809Y-48025390D02*
X133531809Y-48358723D01*
X134055619Y-46596818D02*
X133055619Y-46596818D01*
X133531809Y-46596818D02*
X133531809Y-46025390D01*
X134055619Y-46025390D02*
X133055619Y-46025390D01*
X134055619Y-45406342D02*
X134008000Y-45501580D01*
X134008000Y-45501580D02*
X133960380Y-45549199D01*
X133960380Y-45549199D02*
X133865142Y-45596818D01*
X133865142Y-45596818D02*
X133579428Y-45596818D01*
X133579428Y-45596818D02*
X133484190Y-45549199D01*
X133484190Y-45549199D02*
X133436571Y-45501580D01*
X133436571Y-45501580D02*
X133388952Y-45406342D01*
X133388952Y-45406342D02*
X133388952Y-45263485D01*
X133388952Y-45263485D02*
X133436571Y-45168247D01*
X133436571Y-45168247D02*
X133484190Y-45120628D01*
X133484190Y-45120628D02*
X133579428Y-45073009D01*
X133579428Y-45073009D02*
X133865142Y-45073009D01*
X133865142Y-45073009D02*
X133960380Y-45120628D01*
X133960380Y-45120628D02*
X134008000Y-45168247D01*
X134008000Y-45168247D02*
X134055619Y-45263485D01*
X134055619Y-45263485D02*
X134055619Y-45406342D01*
X134008000Y-44692056D02*
X134055619Y-44596818D01*
X134055619Y-44596818D02*
X134055619Y-44406342D01*
X134055619Y-44406342D02*
X134008000Y-44311104D01*
X134008000Y-44311104D02*
X133912761Y-44263485D01*
X133912761Y-44263485D02*
X133865142Y-44263485D01*
X133865142Y-44263485D02*
X133769904Y-44311104D01*
X133769904Y-44311104D02*
X133722285Y-44406342D01*
X133722285Y-44406342D02*
X133722285Y-44549199D01*
X133722285Y-44549199D02*
X133674666Y-44644437D01*
X133674666Y-44644437D02*
X133579428Y-44692056D01*
X133579428Y-44692056D02*
X133531809Y-44692056D01*
X133531809Y-44692056D02*
X133436571Y-44644437D01*
X133436571Y-44644437D02*
X133388952Y-44549199D01*
X133388952Y-44549199D02*
X133388952Y-44406342D01*
X133388952Y-44406342D02*
X133436571Y-44311104D01*
X133388952Y-43977770D02*
X133388952Y-43596818D01*
X133055619Y-43834913D02*
X133912761Y-43834913D01*
X133912761Y-43834913D02*
X134008000Y-43787294D01*
X134008000Y-43787294D02*
X134055619Y-43692056D01*
X134055619Y-43692056D02*
X134055619Y-43596818D01*
X117596667Y-37947200D02*
X117739524Y-37994819D01*
X117739524Y-37994819D02*
X117977619Y-37994819D01*
X117977619Y-37994819D02*
X118072857Y-37947200D01*
X118072857Y-37947200D02*
X118120476Y-37899580D01*
X118120476Y-37899580D02*
X118168095Y-37804342D01*
X118168095Y-37804342D02*
X118168095Y-37709104D01*
X118168095Y-37709104D02*
X118120476Y-37613866D01*
X118120476Y-37613866D02*
X118072857Y-37566247D01*
X118072857Y-37566247D02*
X117977619Y-37518628D01*
X117977619Y-37518628D02*
X117787143Y-37471009D01*
X117787143Y-37471009D02*
X117691905Y-37423390D01*
X117691905Y-37423390D02*
X117644286Y-37375771D01*
X117644286Y-37375771D02*
X117596667Y-37280533D01*
X117596667Y-37280533D02*
X117596667Y-37185295D01*
X117596667Y-37185295D02*
X117644286Y-37090057D01*
X117644286Y-37090057D02*
X117691905Y-37042438D01*
X117691905Y-37042438D02*
X117787143Y-36994819D01*
X117787143Y-36994819D02*
X118025238Y-36994819D01*
X118025238Y-36994819D02*
X118168095Y-37042438D01*
X118501429Y-36994819D02*
X118739524Y-37994819D01*
X118739524Y-37994819D02*
X118930000Y-37280533D01*
X118930000Y-37280533D02*
X119120476Y-37994819D01*
X119120476Y-37994819D02*
X119358572Y-36994819D01*
X120263333Y-37994819D02*
X119691905Y-37994819D01*
X119977619Y-37994819D02*
X119977619Y-36994819D01*
X119977619Y-36994819D02*
X119882381Y-37137676D01*
X119882381Y-37137676D02*
X119787143Y-37232914D01*
X119787143Y-37232914D02*
X119691905Y-37280533D01*
X154443333Y-55164819D02*
X154110000Y-54688628D01*
X153871905Y-55164819D02*
X153871905Y-54164819D01*
X153871905Y-54164819D02*
X154252857Y-54164819D01*
X154252857Y-54164819D02*
X154348095Y-54212438D01*
X154348095Y-54212438D02*
X154395714Y-54260057D01*
X154395714Y-54260057D02*
X154443333Y-54355295D01*
X154443333Y-54355295D02*
X154443333Y-54498152D01*
X154443333Y-54498152D02*
X154395714Y-54593390D01*
X154395714Y-54593390D02*
X154348095Y-54641009D01*
X154348095Y-54641009D02*
X154252857Y-54688628D01*
X154252857Y-54688628D02*
X153871905Y-54688628D01*
X155395714Y-55164819D02*
X154824286Y-55164819D01*
X155110000Y-55164819D02*
X155110000Y-54164819D01*
X155110000Y-54164819D02*
X155014762Y-54307676D01*
X155014762Y-54307676D02*
X154919524Y-54402914D01*
X154919524Y-54402914D02*
X154824286Y-54450533D01*
X157172857Y-59927528D02*
X157172857Y-59267528D01*
X157864286Y-59927528D02*
X157644286Y-59613242D01*
X157487143Y-59927528D02*
X157487143Y-59267528D01*
X157487143Y-59267528D02*
X157738572Y-59267528D01*
X157738572Y-59267528D02*
X157801429Y-59298957D01*
X157801429Y-59298957D02*
X157832858Y-59330385D01*
X157832858Y-59330385D02*
X157864286Y-59393242D01*
X157864286Y-59393242D02*
X157864286Y-59487528D01*
X157864286Y-59487528D02*
X157832858Y-59550385D01*
X157832858Y-59550385D02*
X157801429Y-59581814D01*
X157801429Y-59581814D02*
X157738572Y-59613242D01*
X157738572Y-59613242D02*
X157487143Y-59613242D01*
X158461429Y-59927528D02*
X158147143Y-59927528D01*
X158147143Y-59927528D02*
X158147143Y-59267528D01*
X158901429Y-59581814D02*
X158995715Y-59613242D01*
X158995715Y-59613242D02*
X159027144Y-59644671D01*
X159027144Y-59644671D02*
X159058572Y-59707528D01*
X159058572Y-59707528D02*
X159058572Y-59801814D01*
X159058572Y-59801814D02*
X159027144Y-59864671D01*
X159027144Y-59864671D02*
X158995715Y-59896100D01*
X158995715Y-59896100D02*
X158932858Y-59927528D01*
X158932858Y-59927528D02*
X158681429Y-59927528D01*
X158681429Y-59927528D02*
X158681429Y-59267528D01*
X158681429Y-59267528D02*
X158901429Y-59267528D01*
X158901429Y-59267528D02*
X158964287Y-59298957D01*
X158964287Y-59298957D02*
X158995715Y-59330385D01*
X158995715Y-59330385D02*
X159027144Y-59393242D01*
X159027144Y-59393242D02*
X159027144Y-59456100D01*
X159027144Y-59456100D02*
X158995715Y-59518957D01*
X158995715Y-59518957D02*
X158964287Y-59550385D01*
X158964287Y-59550385D02*
X158901429Y-59581814D01*
X158901429Y-59581814D02*
X158681429Y-59581814D01*
X159435715Y-59550385D02*
X159372858Y-59518957D01*
X159372858Y-59518957D02*
X159341429Y-59487528D01*
X159341429Y-59487528D02*
X159310001Y-59424671D01*
X159310001Y-59424671D02*
X159310001Y-59393242D01*
X159310001Y-59393242D02*
X159341429Y-59330385D01*
X159341429Y-59330385D02*
X159372858Y-59298957D01*
X159372858Y-59298957D02*
X159435715Y-59267528D01*
X159435715Y-59267528D02*
X159561429Y-59267528D01*
X159561429Y-59267528D02*
X159624287Y-59298957D01*
X159624287Y-59298957D02*
X159655715Y-59330385D01*
X159655715Y-59330385D02*
X159687144Y-59393242D01*
X159687144Y-59393242D02*
X159687144Y-59424671D01*
X159687144Y-59424671D02*
X159655715Y-59487528D01*
X159655715Y-59487528D02*
X159624287Y-59518957D01*
X159624287Y-59518957D02*
X159561429Y-59550385D01*
X159561429Y-59550385D02*
X159435715Y-59550385D01*
X159435715Y-59550385D02*
X159372858Y-59581814D01*
X159372858Y-59581814D02*
X159341429Y-59613242D01*
X159341429Y-59613242D02*
X159310001Y-59676100D01*
X159310001Y-59676100D02*
X159310001Y-59801814D01*
X159310001Y-59801814D02*
X159341429Y-59864671D01*
X159341429Y-59864671D02*
X159372858Y-59896100D01*
X159372858Y-59896100D02*
X159435715Y-59927528D01*
X159435715Y-59927528D02*
X159561429Y-59927528D01*
X159561429Y-59927528D02*
X159624287Y-59896100D01*
X159624287Y-59896100D02*
X159655715Y-59864671D01*
X159655715Y-59864671D02*
X159687144Y-59801814D01*
X159687144Y-59801814D02*
X159687144Y-59676100D01*
X159687144Y-59676100D02*
X159655715Y-59613242D01*
X159655715Y-59613242D02*
X159624287Y-59581814D01*
X159624287Y-59581814D02*
X159561429Y-59550385D01*
X159907143Y-59267528D02*
X160347143Y-59267528D01*
X160347143Y-59267528D02*
X160064286Y-59927528D01*
X160567143Y-59330385D02*
X160598571Y-59298957D01*
X160598571Y-59298957D02*
X160661429Y-59267528D01*
X160661429Y-59267528D02*
X160818571Y-59267528D01*
X160818571Y-59267528D02*
X160881429Y-59298957D01*
X160881429Y-59298957D02*
X160912857Y-59330385D01*
X160912857Y-59330385D02*
X160944286Y-59393242D01*
X160944286Y-59393242D02*
X160944286Y-59456100D01*
X160944286Y-59456100D02*
X160912857Y-59550385D01*
X160912857Y-59550385D02*
X160535714Y-59927528D01*
X160535714Y-59927528D02*
X160944286Y-59927528D01*
X161572857Y-59927528D02*
X161195714Y-59927528D01*
X161384285Y-59927528D02*
X161384285Y-59267528D01*
X161384285Y-59267528D02*
X161321428Y-59361814D01*
X161321428Y-59361814D02*
X161258571Y-59424671D01*
X161258571Y-59424671D02*
X161195714Y-59456100D01*
X161855713Y-59927528D02*
X161855713Y-59267528D01*
X161855713Y-59267528D02*
X162107142Y-59267528D01*
X162107142Y-59267528D02*
X162169999Y-59298957D01*
X162169999Y-59298957D02*
X162201428Y-59330385D01*
X162201428Y-59330385D02*
X162232856Y-59393242D01*
X162232856Y-59393242D02*
X162232856Y-59487528D01*
X162232856Y-59487528D02*
X162201428Y-59550385D01*
X162201428Y-59550385D02*
X162169999Y-59581814D01*
X162169999Y-59581814D02*
X162107142Y-59613242D01*
X162107142Y-59613242D02*
X161855713Y-59613242D01*
X162735713Y-59581814D02*
X162829999Y-59613242D01*
X162829999Y-59613242D02*
X162861428Y-59644671D01*
X162861428Y-59644671D02*
X162892856Y-59707528D01*
X162892856Y-59707528D02*
X162892856Y-59801814D01*
X162892856Y-59801814D02*
X162861428Y-59864671D01*
X162861428Y-59864671D02*
X162829999Y-59896100D01*
X162829999Y-59896100D02*
X162767142Y-59927528D01*
X162767142Y-59927528D02*
X162515713Y-59927528D01*
X162515713Y-59927528D02*
X162515713Y-59267528D01*
X162515713Y-59267528D02*
X162735713Y-59267528D01*
X162735713Y-59267528D02*
X162798571Y-59298957D01*
X162798571Y-59298957D02*
X162829999Y-59330385D01*
X162829999Y-59330385D02*
X162861428Y-59393242D01*
X162861428Y-59393242D02*
X162861428Y-59456100D01*
X162861428Y-59456100D02*
X162829999Y-59518957D01*
X162829999Y-59518957D02*
X162798571Y-59550385D01*
X162798571Y-59550385D02*
X162735713Y-59581814D01*
X162735713Y-59581814D02*
X162515713Y-59581814D01*
X163395713Y-59581814D02*
X163175713Y-59581814D01*
X163175713Y-59927528D02*
X163175713Y-59267528D01*
X163175713Y-59267528D02*
X163489999Y-59267528D01*
D12*
X117296856Y-55320318D02*
X117296856Y-54050318D01*
X117296856Y-54050318D02*
X117780666Y-54050318D01*
X117780666Y-54050318D02*
X117901618Y-54110794D01*
X117901618Y-54110794D02*
X117962095Y-54171270D01*
X117962095Y-54171270D02*
X118022571Y-54292222D01*
X118022571Y-54292222D02*
X118022571Y-54473651D01*
X118022571Y-54473651D02*
X117962095Y-54594603D01*
X117962095Y-54594603D02*
X117901618Y-54655080D01*
X117901618Y-54655080D02*
X117780666Y-54715556D01*
X117780666Y-54715556D02*
X117296856Y-54715556D01*
X118506380Y-55259842D02*
X118687809Y-55320318D01*
X118687809Y-55320318D02*
X118990190Y-55320318D01*
X118990190Y-55320318D02*
X119111142Y-55259842D01*
X119111142Y-55259842D02*
X119171618Y-55199365D01*
X119171618Y-55199365D02*
X119232095Y-55078413D01*
X119232095Y-55078413D02*
X119232095Y-54957461D01*
X119232095Y-54957461D02*
X119171618Y-54836508D01*
X119171618Y-54836508D02*
X119111142Y-54776032D01*
X119111142Y-54776032D02*
X118990190Y-54715556D01*
X118990190Y-54715556D02*
X118748285Y-54655080D01*
X118748285Y-54655080D02*
X118627333Y-54594603D01*
X118627333Y-54594603D02*
X118566856Y-54534127D01*
X118566856Y-54534127D02*
X118506380Y-54413175D01*
X118506380Y-54413175D02*
X118506380Y-54292222D01*
X118506380Y-54292222D02*
X118566856Y-54171270D01*
X118566856Y-54171270D02*
X118627333Y-54110794D01*
X118627333Y-54110794D02*
X118748285Y-54050318D01*
X118748285Y-54050318D02*
X119050666Y-54050318D01*
X119050666Y-54050318D02*
X119232095Y-54110794D01*
X120441619Y-55320318D02*
X119715904Y-55320318D01*
X120078761Y-55320318D02*
X120078761Y-54050318D01*
X120078761Y-54050318D02*
X119957809Y-54231746D01*
X119957809Y-54231746D02*
X119836857Y-54352699D01*
X119836857Y-54352699D02*
X119715904Y-54413175D01*
D10*
X109721009Y-91371429D02*
X109768628Y-91228572D01*
X109768628Y-91228572D02*
X109816247Y-91180953D01*
X109816247Y-91180953D02*
X109911485Y-91133334D01*
X109911485Y-91133334D02*
X110054342Y-91133334D01*
X110054342Y-91133334D02*
X110149580Y-91180953D01*
X110149580Y-91180953D02*
X110197200Y-91228572D01*
X110197200Y-91228572D02*
X110244819Y-91323810D01*
X110244819Y-91323810D02*
X110244819Y-91704762D01*
X110244819Y-91704762D02*
X109244819Y-91704762D01*
X109244819Y-91704762D02*
X109244819Y-91371429D01*
X109244819Y-91371429D02*
X109292438Y-91276191D01*
X109292438Y-91276191D02*
X109340057Y-91228572D01*
X109340057Y-91228572D02*
X109435295Y-91180953D01*
X109435295Y-91180953D02*
X109530533Y-91180953D01*
X109530533Y-91180953D02*
X109625771Y-91228572D01*
X109625771Y-91228572D02*
X109673390Y-91276191D01*
X109673390Y-91276191D02*
X109721009Y-91371429D01*
X109721009Y-91371429D02*
X109721009Y-91704762D01*
X110244819Y-90276191D02*
X109721009Y-90276191D01*
X109721009Y-90276191D02*
X109625771Y-90323810D01*
X109625771Y-90323810D02*
X109578152Y-90419048D01*
X109578152Y-90419048D02*
X109578152Y-90609524D01*
X109578152Y-90609524D02*
X109625771Y-90704762D01*
X110197200Y-90276191D02*
X110244819Y-90371429D01*
X110244819Y-90371429D02*
X110244819Y-90609524D01*
X110244819Y-90609524D02*
X110197200Y-90704762D01*
X110197200Y-90704762D02*
X110101961Y-90752381D01*
X110101961Y-90752381D02*
X110006723Y-90752381D01*
X110006723Y-90752381D02*
X109911485Y-90704762D01*
X109911485Y-90704762D02*
X109863866Y-90609524D01*
X109863866Y-90609524D02*
X109863866Y-90371429D01*
X109863866Y-90371429D02*
X109816247Y-90276191D01*
X109578152Y-89942857D02*
X109578152Y-89561905D01*
X109244819Y-89800000D02*
X110101961Y-89800000D01*
X110101961Y-89800000D02*
X110197200Y-89752381D01*
X110197200Y-89752381D02*
X110244819Y-89657143D01*
X110244819Y-89657143D02*
X110244819Y-89561905D01*
X109578152Y-89371428D02*
X109578152Y-88990476D01*
X109244819Y-89228571D02*
X110101961Y-89228571D01*
X110101961Y-89228571D02*
X110197200Y-89180952D01*
X110197200Y-89180952D02*
X110244819Y-89085714D01*
X110244819Y-89085714D02*
X110244819Y-88990476D01*
X110197200Y-88276190D02*
X110244819Y-88371428D01*
X110244819Y-88371428D02*
X110244819Y-88561904D01*
X110244819Y-88561904D02*
X110197200Y-88657142D01*
X110197200Y-88657142D02*
X110101961Y-88704761D01*
X110101961Y-88704761D02*
X109721009Y-88704761D01*
X109721009Y-88704761D02*
X109625771Y-88657142D01*
X109625771Y-88657142D02*
X109578152Y-88561904D01*
X109578152Y-88561904D02*
X109578152Y-88371428D01*
X109578152Y-88371428D02*
X109625771Y-88276190D01*
X109625771Y-88276190D02*
X109721009Y-88228571D01*
X109721009Y-88228571D02*
X109816247Y-88228571D01*
X109816247Y-88228571D02*
X109911485Y-88704761D01*
X110244819Y-87799999D02*
X109578152Y-87799999D01*
X109768628Y-87799999D02*
X109673390Y-87752380D01*
X109673390Y-87752380D02*
X109625771Y-87704761D01*
X109625771Y-87704761D02*
X109578152Y-87609523D01*
X109578152Y-87609523D02*
X109578152Y-87514285D01*
X109578152Y-87276189D02*
X110244819Y-87038094D01*
X109578152Y-86799999D02*
X110244819Y-87038094D01*
X110244819Y-87038094D02*
X110482914Y-87133332D01*
X110482914Y-87133332D02*
X110530533Y-87180951D01*
X110530533Y-87180951D02*
X110578152Y-87276189D01*
X150178095Y-62774819D02*
X150511428Y-63774819D01*
X150511428Y-63774819D02*
X150844761Y-62774819D01*
X151606666Y-63774819D02*
X151606666Y-63251009D01*
X151606666Y-63251009D02*
X151559047Y-63155771D01*
X151559047Y-63155771D02*
X151463809Y-63108152D01*
X151463809Y-63108152D02*
X151273333Y-63108152D01*
X151273333Y-63108152D02*
X151178095Y-63155771D01*
X151606666Y-63727200D02*
X151511428Y-63774819D01*
X151511428Y-63774819D02*
X151273333Y-63774819D01*
X151273333Y-63774819D02*
X151178095Y-63727200D01*
X151178095Y-63727200D02*
X151130476Y-63631961D01*
X151130476Y-63631961D02*
X151130476Y-63536723D01*
X151130476Y-63536723D02*
X151178095Y-63441485D01*
X151178095Y-63441485D02*
X151273333Y-63393866D01*
X151273333Y-63393866D02*
X151511428Y-63393866D01*
X151511428Y-63393866D02*
X151606666Y-63346247D01*
X152225714Y-63774819D02*
X152130476Y-63727200D01*
X152130476Y-63727200D02*
X152082857Y-63631961D01*
X152082857Y-63631961D02*
X152082857Y-62774819D01*
X152511429Y-63108152D02*
X152749524Y-63774819D01*
X152749524Y-63774819D02*
X152987619Y-63108152D01*
X153749524Y-63727200D02*
X153654286Y-63774819D01*
X153654286Y-63774819D02*
X153463810Y-63774819D01*
X153463810Y-63774819D02*
X153368572Y-63727200D01*
X153368572Y-63727200D02*
X153320953Y-63631961D01*
X153320953Y-63631961D02*
X153320953Y-63251009D01*
X153320953Y-63251009D02*
X153368572Y-63155771D01*
X153368572Y-63155771D02*
X153463810Y-63108152D01*
X153463810Y-63108152D02*
X153654286Y-63108152D01*
X153654286Y-63108152D02*
X153749524Y-63155771D01*
X153749524Y-63155771D02*
X153797143Y-63251009D01*
X153797143Y-63251009D02*
X153797143Y-63346247D01*
X153797143Y-63346247D02*
X153320953Y-63441485D01*
X155416191Y-63774819D02*
X155416191Y-62774819D01*
X155416191Y-63727200D02*
X155320953Y-63774819D01*
X155320953Y-63774819D02*
X155130477Y-63774819D01*
X155130477Y-63774819D02*
X155035239Y-63727200D01*
X155035239Y-63727200D02*
X154987620Y-63679580D01*
X154987620Y-63679580D02*
X154940001Y-63584342D01*
X154940001Y-63584342D02*
X154940001Y-63298628D01*
X154940001Y-63298628D02*
X154987620Y-63203390D01*
X154987620Y-63203390D02*
X155035239Y-63155771D01*
X155035239Y-63155771D02*
X155130477Y-63108152D01*
X155130477Y-63108152D02*
X155320953Y-63108152D01*
X155320953Y-63108152D02*
X155416191Y-63155771D01*
X155892382Y-63774819D02*
X155892382Y-63108152D01*
X155892382Y-62774819D02*
X155844763Y-62822438D01*
X155844763Y-62822438D02*
X155892382Y-62870057D01*
X155892382Y-62870057D02*
X155940001Y-62822438D01*
X155940001Y-62822438D02*
X155892382Y-62774819D01*
X155892382Y-62774819D02*
X155892382Y-62870057D01*
X156511429Y-63774819D02*
X156416191Y-63727200D01*
X156416191Y-63727200D02*
X156368572Y-63679580D01*
X156368572Y-63679580D02*
X156320953Y-63584342D01*
X156320953Y-63584342D02*
X156320953Y-63298628D01*
X156320953Y-63298628D02*
X156368572Y-63203390D01*
X156368572Y-63203390D02*
X156416191Y-63155771D01*
X156416191Y-63155771D02*
X156511429Y-63108152D01*
X156511429Y-63108152D02*
X156654286Y-63108152D01*
X156654286Y-63108152D02*
X156749524Y-63155771D01*
X156749524Y-63155771D02*
X156797143Y-63203390D01*
X156797143Y-63203390D02*
X156844762Y-63298628D01*
X156844762Y-63298628D02*
X156844762Y-63584342D01*
X156844762Y-63584342D02*
X156797143Y-63679580D01*
X156797143Y-63679580D02*
X156749524Y-63727200D01*
X156749524Y-63727200D02*
X156654286Y-63774819D01*
X156654286Y-63774819D02*
X156511429Y-63774819D01*
X157701905Y-63774819D02*
X157701905Y-62774819D01*
X157701905Y-63727200D02*
X157606667Y-63774819D01*
X157606667Y-63774819D02*
X157416191Y-63774819D01*
X157416191Y-63774819D02*
X157320953Y-63727200D01*
X157320953Y-63727200D02*
X157273334Y-63679580D01*
X157273334Y-63679580D02*
X157225715Y-63584342D01*
X157225715Y-63584342D02*
X157225715Y-63298628D01*
X157225715Y-63298628D02*
X157273334Y-63203390D01*
X157273334Y-63203390D02*
X157320953Y-63155771D01*
X157320953Y-63155771D02*
X157416191Y-63108152D01*
X157416191Y-63108152D02*
X157606667Y-63108152D01*
X157606667Y-63108152D02*
X157701905Y-63155771D01*
X158559048Y-63727200D02*
X158463810Y-63774819D01*
X158463810Y-63774819D02*
X158273334Y-63774819D01*
X158273334Y-63774819D02*
X158178096Y-63727200D01*
X158178096Y-63727200D02*
X158130477Y-63631961D01*
X158130477Y-63631961D02*
X158130477Y-63251009D01*
X158130477Y-63251009D02*
X158178096Y-63155771D01*
X158178096Y-63155771D02*
X158273334Y-63108152D01*
X158273334Y-63108152D02*
X158463810Y-63108152D01*
X158463810Y-63108152D02*
X158559048Y-63155771D01*
X158559048Y-63155771D02*
X158606667Y-63251009D01*
X158606667Y-63251009D02*
X158606667Y-63346247D01*
X158606667Y-63346247D02*
X158130477Y-63441485D01*
X147108095Y-63944819D02*
X147108095Y-62944819D01*
X147679523Y-63944819D02*
X147250952Y-63373390D01*
X147679523Y-62944819D02*
X147108095Y-63516247D01*
X146113810Y-69280057D02*
X146161429Y-69232438D01*
X146161429Y-69232438D02*
X146256667Y-69184819D01*
X146256667Y-69184819D02*
X146494762Y-69184819D01*
X146494762Y-69184819D02*
X146590000Y-69232438D01*
X146590000Y-69232438D02*
X146637619Y-69280057D01*
X146637619Y-69280057D02*
X146685238Y-69375295D01*
X146685238Y-69375295D02*
X146685238Y-69470533D01*
X146685238Y-69470533D02*
X146637619Y-69613390D01*
X146637619Y-69613390D02*
X146066191Y-70184819D01*
X146066191Y-70184819D02*
X146685238Y-70184819D01*
X147018572Y-69184819D02*
X147256667Y-70184819D01*
X147256667Y-70184819D02*
X147447143Y-69470533D01*
X147447143Y-69470533D02*
X147637619Y-70184819D01*
X147637619Y-70184819D02*
X147875715Y-69184819D01*
X148256667Y-69803866D02*
X149018572Y-69803866D01*
X150018571Y-70184819D02*
X149447143Y-70184819D01*
X149732857Y-70184819D02*
X149732857Y-69184819D01*
X149732857Y-69184819D02*
X149637619Y-69327676D01*
X149637619Y-69327676D02*
X149542381Y-69422914D01*
X149542381Y-69422914D02*
X149447143Y-69470533D01*
X150875714Y-69184819D02*
X150685238Y-69184819D01*
X150685238Y-69184819D02*
X150590000Y-69232438D01*
X150590000Y-69232438D02*
X150542381Y-69280057D01*
X150542381Y-69280057D02*
X150447143Y-69422914D01*
X150447143Y-69422914D02*
X150399524Y-69613390D01*
X150399524Y-69613390D02*
X150399524Y-69994342D01*
X150399524Y-69994342D02*
X150447143Y-70089580D01*
X150447143Y-70089580D02*
X150494762Y-70137200D01*
X150494762Y-70137200D02*
X150590000Y-70184819D01*
X150590000Y-70184819D02*
X150780476Y-70184819D01*
X150780476Y-70184819D02*
X150875714Y-70137200D01*
X150875714Y-70137200D02*
X150923333Y-70089580D01*
X150923333Y-70089580D02*
X150970952Y-69994342D01*
X150970952Y-69994342D02*
X150970952Y-69756247D01*
X150970952Y-69756247D02*
X150923333Y-69661009D01*
X150923333Y-69661009D02*
X150875714Y-69613390D01*
X150875714Y-69613390D02*
X150780476Y-69565771D01*
X150780476Y-69565771D02*
X150590000Y-69565771D01*
X150590000Y-69565771D02*
X150494762Y-69613390D01*
X150494762Y-69613390D02*
X150447143Y-69661009D01*
X150447143Y-69661009D02*
X150399524Y-69756247D01*
X151590000Y-69184819D02*
X151685238Y-69184819D01*
X151685238Y-69184819D02*
X151780476Y-69232438D01*
X151780476Y-69232438D02*
X151828095Y-69280057D01*
X151828095Y-69280057D02*
X151875714Y-69375295D01*
X151875714Y-69375295D02*
X151923333Y-69565771D01*
X151923333Y-69565771D02*
X151923333Y-69803866D01*
X151923333Y-69803866D02*
X151875714Y-69994342D01*
X151875714Y-69994342D02*
X151828095Y-70089580D01*
X151828095Y-70089580D02*
X151780476Y-70137200D01*
X151780476Y-70137200D02*
X151685238Y-70184819D01*
X151685238Y-70184819D02*
X151590000Y-70184819D01*
X151590000Y-70184819D02*
X151494762Y-70137200D01*
X151494762Y-70137200D02*
X151447143Y-70089580D01*
X151447143Y-70089580D02*
X151399524Y-69994342D01*
X151399524Y-69994342D02*
X151351905Y-69803866D01*
X151351905Y-69803866D02*
X151351905Y-69565771D01*
X151351905Y-69565771D02*
X151399524Y-69375295D01*
X151399524Y-69375295D02*
X151447143Y-69280057D01*
X151447143Y-69280057D02*
X151494762Y-69232438D01*
X151494762Y-69232438D02*
X151590000Y-69184819D01*
X152351905Y-69803866D02*
X153113810Y-69803866D01*
X154113809Y-70184819D02*
X153542381Y-70184819D01*
X153828095Y-70184819D02*
X153828095Y-69184819D01*
X153828095Y-69184819D02*
X153732857Y-69327676D01*
X153732857Y-69327676D02*
X153637619Y-69422914D01*
X153637619Y-69422914D02*
X153542381Y-69470533D01*
X155018571Y-69184819D02*
X154542381Y-69184819D01*
X154542381Y-69184819D02*
X154494762Y-69661009D01*
X154494762Y-69661009D02*
X154542381Y-69613390D01*
X154542381Y-69613390D02*
X154637619Y-69565771D01*
X154637619Y-69565771D02*
X154875714Y-69565771D01*
X154875714Y-69565771D02*
X154970952Y-69613390D01*
X154970952Y-69613390D02*
X155018571Y-69661009D01*
X155018571Y-69661009D02*
X155066190Y-69756247D01*
X155066190Y-69756247D02*
X155066190Y-69994342D01*
X155066190Y-69994342D02*
X155018571Y-70089580D01*
X155018571Y-70089580D02*
X154970952Y-70137200D01*
X154970952Y-70137200D02*
X154875714Y-70184819D01*
X154875714Y-70184819D02*
X154637619Y-70184819D01*
X154637619Y-70184819D02*
X154542381Y-70137200D01*
X154542381Y-70137200D02*
X154494762Y-70089580D01*
X155494762Y-70184819D02*
X155494762Y-69184819D01*
X155494762Y-69184819D02*
X156066190Y-70184819D01*
X156066190Y-70184819D02*
X156066190Y-69184819D01*
X157066190Y-70184819D02*
X156494762Y-70184819D01*
X156780476Y-70184819D02*
X156780476Y-69184819D01*
X156780476Y-69184819D02*
X156685238Y-69327676D01*
X156685238Y-69327676D02*
X156590000Y-69422914D01*
X156590000Y-69422914D02*
X156494762Y-69470533D01*
%TO.C,WT901*%
D11*
X147190000Y-34990000D02*
X162430000Y-34990000D01*
X162430000Y-50230000D01*
X147190000Y-50230000D01*
X147190000Y-34990000D01*
D13*
%TO.C,BMP388*%
X110520000Y-63990000D02*
X110520000Y-81830000D01*
X110520000Y-63990000D02*
X113180000Y-63990000D01*
X110520000Y-81830000D02*
X113180000Y-81830000D01*
X111850000Y-61390000D02*
X113180000Y-61390000D01*
X113180000Y-61390000D02*
X113180000Y-62720000D01*
X113180000Y-63990000D02*
X113180000Y-81830000D01*
D10*
%TO.C,U1*%
X136988026Y-77580000D02*
G75*
G02*
X135191974Y-77580000I-898026J0D01*
G01*
X135191974Y-77580000D02*
G75*
G02*
X136988026Y-77580000I898026J0D01*
G01*
X142440000Y-57895000D02*
X129740000Y-57895000D01*
X142440000Y-70595000D02*
X142440000Y-57895000D01*
X129740000Y-70595000D02*
X142440000Y-70595000D01*
X129740000Y-57895000D02*
X129740000Y-70595000D01*
X142441600Y-48265000D02*
X142191600Y-48265000D01*
X142441600Y-52265000D02*
X142441600Y-48265000D01*
X136191600Y-52265000D02*
X142441600Y-52265000D01*
X136191600Y-48265000D02*
X136191600Y-52265000D01*
X142191600Y-48265000D02*
X136191600Y-48265000D01*
X132790800Y-43874200D02*
X130250800Y-43874200D01*
X132790800Y-41334200D02*
X132790800Y-43874200D01*
X130250800Y-41334200D02*
X132790800Y-41334200D01*
X130250800Y-54034200D02*
X130250800Y-41334200D01*
X132790800Y-54034200D02*
X130250800Y-54034200D01*
X132790800Y-41334200D02*
X132790800Y-54034200D01*
X137360000Y-75675000D02*
X137360000Y-79485000D01*
X134820000Y-75675000D02*
X137360000Y-75675000D01*
X134820000Y-79485000D02*
X134820000Y-75675000D01*
X137360000Y-79485000D02*
X134820000Y-79485000D01*
X131010000Y-94725000D02*
X131010000Y-95995000D01*
X141170000Y-94725000D02*
X131010000Y-94725000D01*
X141170000Y-95995000D02*
X141170000Y-94725000D01*
X129740000Y-83295000D02*
X129740000Y-95995000D01*
X142440000Y-83295000D02*
X129740000Y-83295000D01*
X142440000Y-95995000D02*
X142440000Y-83295000D01*
X132280000Y-35035000D02*
X132280000Y-33765000D01*
X132280000Y-33765000D02*
X139900000Y-33765000D01*
X139900000Y-33765000D02*
X139900000Y-35035000D01*
X132280000Y-40115000D02*
X139900000Y-40115000D01*
X139900000Y-40115000D02*
X139900000Y-35035000D01*
X132280000Y-40115000D02*
X132280000Y-35035000D01*
X144980000Y-35035000D02*
X144980000Y-95995000D01*
X144980000Y-95995000D02*
X127200000Y-95995000D01*
X127200000Y-95995000D02*
X127200000Y-35035000D01*
X127200000Y-35035000D02*
X144980000Y-35035000D01*
D11*
X136016000Y-67696000D02*
X135635000Y-67950000D01*
X135381000Y-67696000D01*
X135762000Y-67442000D01*
X136016000Y-67696000D01*
G36*
X136016000Y-67696000D02*
G01*
X135635000Y-67950000D01*
X135381000Y-67696000D01*
X135762000Y-67442000D01*
X136016000Y-67696000D01*
G37*
X136524000Y-67315000D02*
X136143000Y-67569000D01*
X135889000Y-67315000D01*
X136270000Y-67061000D01*
X136524000Y-67315000D01*
G36*
X136524000Y-67315000D02*
G01*
X136143000Y-67569000D01*
X135889000Y-67315000D01*
X136270000Y-67061000D01*
X136524000Y-67315000D01*
G37*
X137032000Y-66934000D02*
X136651000Y-67188000D01*
X136397000Y-66934000D01*
X136778000Y-66680000D01*
X137032000Y-66934000D01*
G36*
X137032000Y-66934000D02*
G01*
X136651000Y-67188000D01*
X136397000Y-66934000D01*
X136778000Y-66680000D01*
X137032000Y-66934000D01*
G37*
X136143000Y-66934000D02*
X135762000Y-67188000D01*
X135508000Y-66934000D01*
X135889000Y-66680000D01*
X136143000Y-66934000D01*
G36*
X136143000Y-66934000D02*
G01*
X135762000Y-67188000D01*
X135508000Y-66934000D01*
X135889000Y-66680000D01*
X136143000Y-66934000D01*
G37*
X136651000Y-66553000D02*
X136270000Y-66807000D01*
X136016000Y-66553000D01*
X136397000Y-66299000D01*
X136651000Y-66553000D01*
G36*
X136651000Y-66553000D02*
G01*
X136270000Y-66807000D01*
X136016000Y-66553000D01*
X136397000Y-66299000D01*
X136651000Y-66553000D01*
G37*
X137159000Y-66172000D02*
X136778000Y-66426000D01*
X136524000Y-66172000D01*
X136905000Y-65918000D01*
X137159000Y-66172000D01*
G36*
X137159000Y-66172000D02*
G01*
X136778000Y-66426000D01*
X136524000Y-66172000D01*
X136905000Y-65918000D01*
X137159000Y-66172000D01*
G37*
X136397000Y-68077000D02*
X136016000Y-68331000D01*
X135762000Y-68077000D01*
X136143000Y-67823000D01*
X136397000Y-68077000D01*
G36*
X136397000Y-68077000D02*
G01*
X136016000Y-68331000D01*
X135762000Y-68077000D01*
X136143000Y-67823000D01*
X136397000Y-68077000D01*
G37*
X136778000Y-68458000D02*
X136397000Y-68712000D01*
X136143000Y-68458000D01*
X136524000Y-68204000D01*
X136778000Y-68458000D01*
G36*
X136778000Y-68458000D02*
G01*
X136397000Y-68712000D01*
X136143000Y-68458000D01*
X136524000Y-68204000D01*
X136778000Y-68458000D01*
G37*
D13*
%TO.C,SW1*%
X124460000Y-37490000D02*
X124460000Y-35250000D01*
X124460000Y-35250000D02*
X122460000Y-35250000D01*
X124220000Y-45610000D02*
X124220000Y-35490000D01*
X124220000Y-45610000D02*
X114100000Y-45610000D01*
X124220000Y-39050000D02*
X114100000Y-39050000D01*
X124220000Y-35490000D02*
X114100000Y-35490000D01*
X123710000Y-44550000D02*
X123710000Y-39150000D01*
X123710000Y-44550000D02*
X123150000Y-44550000D01*
X123710000Y-39150000D02*
X119610000Y-39150000D01*
X120170000Y-44550000D02*
X119610000Y-44550000D01*
X119610000Y-44550000D02*
X119610000Y-39150000D01*
X118710000Y-44550000D02*
X118710000Y-39150000D01*
X118710000Y-44550000D02*
X117543000Y-44550000D01*
X118710000Y-39150000D02*
X114610000Y-39150000D01*
X115776000Y-44550000D02*
X114610000Y-44550000D01*
X114610000Y-44550000D02*
X114610000Y-39150000D01*
X114100000Y-45610000D02*
X114100000Y-35490000D01*
%TO.C,R1*%
X148700000Y-53827500D02*
X149840000Y-53827500D01*
X149840000Y-56197500D02*
X149840000Y-51457500D01*
X157080000Y-51457500D02*
X149840000Y-51457500D01*
X157080000Y-56197500D02*
X149840000Y-56197500D01*
X157830000Y-52207500D02*
X157080000Y-51457500D01*
X157830000Y-55447500D02*
X157080000Y-56197500D01*
X158580000Y-51457500D02*
X157830000Y-52207500D01*
X158580000Y-56197500D02*
X157830000Y-55447500D01*
X160080000Y-51457500D02*
X158580000Y-51457500D01*
X160080000Y-56197500D02*
X158580000Y-56197500D01*
X160080000Y-56197500D02*
X160080000Y-51457500D01*
X161080000Y-56777500D02*
X161080000Y-55277500D01*
X161220000Y-53827500D02*
X160080000Y-53827500D01*
X161830000Y-56027500D02*
X160330000Y-56027500D01*
%TO.C,IRLB8721PBF*%
X146500000Y-57455000D02*
X146500000Y-62096000D01*
X146500000Y-57455000D02*
X156740000Y-57455000D01*
X146500000Y-58965000D02*
X156740000Y-58965000D01*
X146500000Y-62096000D02*
X156740000Y-62096000D01*
X149770000Y-57455000D02*
X149770000Y-58965000D01*
X153471000Y-57455000D02*
X153471000Y-58965000D01*
X156740000Y-57455000D02*
X156740000Y-62096000D01*
D12*
%TO.C,PS1*%
X113310000Y-50223000D02*
X113310000Y-57823000D01*
X113310000Y-57823000D02*
X125010000Y-57823000D01*
X125010000Y-50223000D02*
X113310000Y-50223000D01*
X125010000Y-57823000D02*
X125010000Y-50223000D01*
X116346000Y-58456000D02*
G75*
G02*
X116064000Y-58456000I-141000J0D01*
G01*
X116064000Y-58456000D02*
G75*
G02*
X116346000Y-58456000I141000J0D01*
G01*
D13*
%TO.C,Battery*%
X112810000Y-92820000D02*
X112810000Y-95060000D01*
X112810000Y-95060000D02*
X114810000Y-95060000D01*
X113050000Y-84700000D02*
X113050000Y-94820000D01*
X113050000Y-84700000D02*
X123170000Y-84700000D01*
X113050000Y-91260000D02*
X123170000Y-91260000D01*
X113050000Y-94820000D02*
X123170000Y-94820000D01*
X113560000Y-85760000D02*
X113560000Y-91160000D01*
X113560000Y-85760000D02*
X114120000Y-85760000D01*
X113560000Y-91160000D02*
X117660000Y-91160000D01*
X117100000Y-85760000D02*
X117660000Y-85760000D01*
X117660000Y-85760000D02*
X117660000Y-91160000D01*
X118560000Y-85760000D02*
X118560000Y-91160000D01*
X118560000Y-85760000D02*
X119727000Y-85760000D01*
X118560000Y-91160000D02*
X122660000Y-91160000D01*
X121494000Y-85760000D02*
X122660000Y-85760000D01*
X122660000Y-85760000D02*
X122660000Y-91160000D01*
X123170000Y-84700000D02*
X123170000Y-94820000D01*
%TO.C,Valve diode*%
X148710000Y-65590000D02*
X149730000Y-65590000D01*
X149730000Y-64120000D02*
X149730000Y-67060000D01*
X149730000Y-67060000D02*
X155170000Y-67060000D01*
X150510000Y-64120000D02*
X150510000Y-67060000D01*
X150630000Y-64120000D02*
X150630000Y-67060000D01*
X150750000Y-64120000D02*
X150750000Y-67060000D01*
X155170000Y-64120000D02*
X149730000Y-64120000D01*
X155170000Y-67060000D02*
X155170000Y-64120000D01*
X156190000Y-65590000D02*
X155170000Y-65590000D01*
%TO.C,2W-160-15N1*%
X146290000Y-78850000D02*
X146290000Y-81090000D01*
X146290000Y-81090000D02*
X148290000Y-81090000D01*
X146530000Y-70730000D02*
X146530000Y-80850000D01*
X146530000Y-70730000D02*
X156650000Y-70730000D01*
X146530000Y-77290000D02*
X156650000Y-77290000D01*
X146530000Y-80850000D02*
X156650000Y-80850000D01*
X147040000Y-71790000D02*
X147040000Y-77190000D01*
X147040000Y-71790000D02*
X147600000Y-71790000D01*
X147040000Y-77190000D02*
X151140000Y-77190000D01*
X150580000Y-71790000D02*
X151140000Y-71790000D01*
X151140000Y-71790000D02*
X151140000Y-77190000D01*
X152040000Y-71790000D02*
X152040000Y-77190000D01*
X152040000Y-71790000D02*
X153207000Y-71790000D01*
X152040000Y-77190000D02*
X156140000Y-77190000D01*
X154974000Y-71790000D02*
X156140000Y-71790000D01*
X156140000Y-71790000D02*
X156140000Y-77190000D01*
X156650000Y-70730000D02*
X156650000Y-80850000D01*
%TD*%
M02*
